<svg xmlns="http://www.w3.org/2000/svg" fill="#e10098" style="fill:color(display-p3 .8824 0 .5961)" viewBox="0 0 367 100"><path fill-rule="evenodd" d="m50 6.9 37.3 21.6v43L50 93.1 12.7 71.5v-43L50 6.9Zm-33.1 24v31.6L44.3 15 16.9 31ZM50 13.5 18.4 68.2h63.2L50 13.5Zm27.4 59H22.6L50 88.2l27.4-15.9Zm5.7-10L55.7 15l27.4 16v31.6Z" clip-rule="evenodd"/><circle cx="50" cy="9.3" r="8.8"/><circle cx="85.2" cy="29.7" r="8.8"/><circle cx="85.2" cy="70.3" r="8.8"/><circle cx="50" cy="90.7" r="8.8"/><circle cx="14.8" cy="70.3" r="8.8"/><circle cx="14.8" cy="29.7" r="8.8"/><path d="M138.9 71.6c-5.2 0-9.3-1.5-12.2-4.5s-4.3-7-4.5-12V43c.2-5 1.7-9 4.5-12s7-4.5 12.2-4.5c3.5 0 6.5.7 9 2 2.3 1.4 4.1 3 5.3 4.8a10 10 0 0 1 2 4.8v.1c0 .3-.2.6-.4.8-.3.2-.6.3-1 .3h-1.4c-.3 0-.6 0-.8-.2l-.5-1c-.7-2.2-2-4-4.1-5.6-2-1.5-4.7-2.2-8.1-2.2-3.9 0-7 1-9.2 3.2-2.2 2-3.4 5.4-3.6 9.9v11.3c.2 4.5 1.4 7.8 3.6 9.9 2.2 2.1 5.3 3.2 9.2 3.2 3.9 0 7-1.1 9.4-3.3 2.3-2.2 3.5-5.5 3.5-9.8v-3.2H141c-.4 0-.7-.2-1-.4a1.6 1.6 0 0 1-.3-1v-1c0-.4 0-.7.3-1 .3-.2.6-.4 1-.4h13.4c.5 0 .8.1 1 .4s.5.6.5 1v5.5c0 3.4-.7 6.3-2 8.9a14.3 14.3 0 0 1-5.9 5.9 18.3 18.3 0 0 1-9 2.1Zm27-.6c-.4 0-.7-.1-1-.4s-.3-.6-.3-1V40c0-.4 0-.7.3-1 .3-.3.6-.4 1-.4h1c.5 0 .8.1 1 .4.3.3.5.6.5 1v3c1.5-3 4.3-4.4 8.5-4.4h2.3c.4 0 .7.1 1 .4s.4.6.4 1v.9c0 .4-.2.7-.4 1s-.6.3-1 .3h-2.7a8 8 0 0 0-6 2.2 8 8 0 0 0-2.1 6v19.3c0 .4-.2.8-.5 1-.2.3-.5.4-1 .4h-1Zm28.7.6c-2 0-3.9-.4-5.6-1.2-1.7-.9-3-2-4.1-3.4a8 8 0 0 1-1.5-4.7c0-2.7 1-5 3.3-6.7a17 17 0 0 1 9-3.4l10-1.4v-2.2c0-2.3-.8-4-2.2-5.2-1.4-1.3-3.5-1.9-6.4-1.9a10 10 0 0 0-5.2 1.3 5.6 5.6 0 0 0-2.6 3l-.6 1c-.2.2-.5.3-.9.3h-.9c-.3 0-.7-.2-1-.4a1.5 1.5 0 0 1-.3-1c0-1 .4-2 1.2-3.2a12.6 12.6 0 0 1 10.3-4.6c4.5 0 7.6 1 9.5 3.2a11 11 0 0 1 2.8 7.7v20.8c0 .4 0 .8-.3 1s-.6.4-1 .4H207c-.4 0-.8-.1-1-.4s-.4-.6-.4-1v-3a11 11 0 0 1-4 3.6c-1.8 1-4.1 1.4-7 1.4Zm.6-3.6c3 0 5.5-1 7.5-3s3-4.9 3-8.6v-2.1l-8.1 1c-3.5.5-6 1.3-7.8 2.5s-2.6 2.5-2.6 4.2a5 5 0 0 0 2.4 4.4c1.6 1 3.5 1.6 5.6 1.6Zm25.6 14.9c-.5 0-.8-.2-1-.4s-.4-.6-.4-1V39.9c0-.4.1-.8.4-1s.5-.4 1-.4h1c.4 0 .8.1 1 .4s.4.6.4 1v3c2.4-3.4 6-5 10.5-5s7.8 1.4 10 4.3c2 2.8 3.2 6.3 3.4 10.5a23.4 23.4 0 0 1 0 4.1 18 18 0 0 1-3.5 10.6c-2.1 2.8-5.4 4.2-10 4.2a12 12 0 0 1-10.4-5v14.9c0 .4-.1.8-.4 1s-.6.4-1 .4h-1ZM233.3 68c3.4 0 5.8-1 7.4-3.2 1.6-2.2 2.4-5 2.6-8.3v-1.8c0-3.8-.7-7-2.2-9.5-1.5-2.5-4.1-3.7-7.8-3.7-3.3 0-5.8 1.1-7.4 3.3a13.2 13.2 0 0 0-2.7 7.7v4.9a12.8 12.8 0 0 0 1.2 5.1 9.5 9.5 0 0 0 9 5.5Zm23.8 3c-.4 0-.8-.1-1-.4s-.4-.6-.4-1V28c0-.4.1-.8.4-1s.6-.4 1-.4h1c.4 0 .8.1 1 .4s.4.6.4 1v14.8a13 13 0 0 1 4.3-3.7 14 14 0 0 1 6.2-1.2c4 0 7.2 1.3 9.4 4a15 15 0 0 1 3.4 10v17.7c0 .4-.2.8-.4 1s-.6.4-1 .4h-1c-.5 0-.8-.1-1-.4s-.5-.6-.5-1V52.2c0-3.4-.8-6-2.5-7.9-1.6-1.9-4-2.8-7-2.8s-5.4 1-7.2 2.9a10.9 10.9 0 0 0-2.7 7.8v17.4c0 .4-.1.8-.4 1s-.6.4-1 .4h-1Zm64.6 4c-.6 0-1.3-.4-2-1.4l-2.8-3.8a19.9 19.9 0 0 1-8.7 1.8c-10.7 0-16.2-5.7-16.5-17.2V43.9c.1-5.7 1.7-10 4.6-12.9s6.9-4.4 11.9-4.4 9 1.5 11.9 4.4 4.4 7.2 4.6 12.9a185.5 185.5 0 0 1 0 10.5c-.2 6-1.7 10.3-4.6 13.1l4 5.6.2.7a1.2 1.2 0 0 1-.4.9 1.2 1.2 0 0 1-.8.4h-1.4Zm-13.5-7a12 12 0 0 0 9-3.4c2.2-2.3 3.4-5.8 3.5-10.4a190.8 190.8 0 0 0 0-10c-.1-4.6-1.3-8-3.6-10.3-2.2-2.3-5.2-3.4-9-3.4s-6.6 1.1-8.9 3.4c-2.2 2.3-3.4 5.7-3.6 10.4V54c.2 4.6 1.4 8.1 3.6 10.4 2.2 2.3 5.2 3.4 9 3.4Zm28 3.1c-.5 0-.8-.1-1-.4s-.4-.6-.4-1v-41c0-.4 0-.7.3-1s.6-.4 1-.4h1.2c.4 0 .8.2 1 .4s.4.6.4 1v38.6h21.6c.4 0 .8.2 1 .4s.4.6.4 1v1c0 .4-.2.8-.4 1-.3.3-.6.4-1 .4H336Z"/></svg>