<svg xmlns="http://www.w3.org/2000/svg" viewBox="0 0 240 49"><g fill-rule="evenodd"><path d="M159.5 0h41.8v7.7h-16.5v40.6h-8.3V7.7h-17V0ZM90.8 0v7.7H57.3v12.5h27v7.6h-27v12.8h33.5v7.7H49V0h41.8Zm20.9 0h-10.9l38.9 48.4h10.9L131 24.2 150.5 0h-10.8l-14 17.4-14-17.4Zm11.1 34.5-5.4-6.7-16.6 20.6h10.9l11.1-13.9Z"/><path d="M49.3 48.3 10.4 0H0v48.3h8.3V10.4l30.6 37.9zm153.9-.3c-.6 0-1-.2-1.5-.5a2 2 0 0 1-.7-1.6c0-.6.2-1.1.6-1.6.5-.4 1-.6 1.6-.6a2 2 0 0 1 1.5.6c.8.7 1 1.8.4 2.7-.4.6-1 1-1.8 1Zm14.1-20.3h3.7v14.1c0 1.3-.3 2.5-.8 3.4-.5 1-1.4 1.7-2.3 2.1-1 .5-2.1.8-3.5.8a9 9 0 0 1-3.2-.6c-1-.4-1.7-1-2.3-2-.5-.7-.8-1.8-.8-3h3.6c.1.5.2 1 .5 1.4.2.4.6.7 1 .9.4.2.8.3 1.4.3.6 0 1-.1 1.5-.4.4-.2.7-.6 1-1l.2-2v-14Zm18.9 5.5c-.1-.8-.6-1.6-1.3-2-.7-.5-1.7-.7-2.6-.7a6 6 0 0 0-2 .3c-.5.3-1 .6-1.2 1a2.1 2.1 0 0 0-.2 2.4c.2.3.4.6.8.8l1.1.6 1.3.3 1.9.5c.8.1 1.5.4 2.2.7a8 8 0 0 1 2 1 5 5 0 0 1 1.8 4c0 1.3-.3 2.3-1 3.2a6 6 0 0 1-2.6 2c-1 .6-2.5.8-4.1.8-1.6 0-3-.2-4.2-.7a6 6 0 0 1-2.7-2.1c-.6-1-1-2.1-1-3.5h3.6a3 3 0 0 0 2.1 2.8 5 5 0 0 0 2.1.4c.8 0 1.5-.1 2.1-.4a4 4 0 0 0 1.5-1c.3-.4.5-.9.5-1.4 0-.6-.1-1-.4-1.4l-1.3-.8-2-.7-2.3-.6a8 8 0 0 1-4-2c-1-.8-1.5-2-1.5-3.4 0-1.1.4-2.2 1-3a6 6 0 0 1 2.7-2.2 11.2 11.2 0 0 1 7.7 0c1 .5 2 1.3 2.6 2.1a5 5 0 0 1 .9 3h-3.5Z"/></g></svg>
