<svg xmlns="http://www.w3.org/2000/svg" viewBox="0 0 207 124"><path d="M49 32.6h38.9v3.1H52.5V59h33.3v3H52.5v25.6h35.8v3H49v-58Zm42.4 0h4.1L114 58.1l18.7-25.5L158.1.3l-41.9 60.5 21.6 29.7h-4.3l-19.6-27-19.8 27H90l21.8-29.7-20.3-28.2Zm48 3.1v-3h44.4v3h-20.5v54.8h-3.6V35.7h-20.3ZM.2 32.7h4.5l61.5 91.6-25.4-33.8L3.9 37l-.1 53.5H.2zm183.2 53.8c.7 0 1.3-.5 1.3-1.3 0-.7-.6-1.3-1.3-1.3-.7 0-1.3.6-1.3 1.3 0 .8.6 1.3 1.3 1.3Zm3.5-3.4c0 2.2 1.6 3.6 3.8 3.6 2.4 0 3.9-1.5 3.9-4V74h-2v8.8c0 1.4-.6 2.2-1.9 2.2-1.1 0-1.9-.7-1.9-1.8H187Zm10.2 0c.2 2.2 2 3.6 4.8 3.6 3 0 4.9-1.5 4.9-4 0-1.8-1.1-2.8-3.7-3.4l-1.3-.4c-1.7-.3-2.3-.9-2.3-1.7 0-1.2 1-1.9 2.5-1.9s2.5.7 2.7 1.9h1.9c-.2-2.1-2-3.6-4.6-3.6-2.7 0-4.5 1.5-4.5 3.7 0 1.8 1 3 3.3 3.4l1.6.4c1.7.4 2.4 1 2.4 2S203.6 85 202 85c-1.7 0-2.9-.8-3-2h-2Z"/></svg>