<svg xmlns="http://www.w3.org/2000/svg" viewBox="0 0 401 136"><g fill="none" fill-rule="evenodd" transform="translate(-5.1 -13.5)"><path fill="#04DCFC" fill-rule="nonzero" d="M180.7 111.5h8V86.4h15.6l13.5 25h9.3l-14.7-26.3A18 18 0 0 0 225.2 67v-.1c0-11.4-8-18.9-20.2-18.9h-24.3v63.5Zm8-32.2V55.1h15.2c8.2 0 13.1 4.5 13.1 12v.1c0 7.8-4.6 12.1-12.7 12.1h-15.6Zm66.6 33c11.2 0 18-6.3 19.5-12.8l.1-.3h-7.6l-.2.4c-1.3 2.8-5.2 5.9-11.6 5.9-8.5 0-13.9-5.7-14.1-15.5h34.1v-3c0-14.2-7.8-23.8-20.7-23.8-12.9 0-21.2 10-21.2 24.7 0 14.9 8.2 24.4 21.7 24.4Zm-.5-42.2c7 0 12.1 4.4 13 13.8h-26.3c.9-9 6.2-13.8 13.3-13.8Zm44.2 42.2c6.5 0 11.4-2.8 14.4-7.8h.7v7h7.7V79c0-9.8-6.5-15.8-18-15.8-10.2 0-17.4 5-18.6 12.5v.2h7.6c1.3-3.8 5-5.9 10.7-5.9 7 0 10.6 3.2 10.6 9v4.3l-13.6.9c-11 .6-17.2 5.5-17.2 14 0 8.6 6.8 14 15.8 14ZM291 98c0-4.7 3.2-7.3 10.5-7.7l12.6-.8v4.3c0 6.8-5.7 11.9-13.4 11.9-5.5 0-9.6-2.9-9.6-7.6Zm62.8 14.3c11.4 0 17.8-6.1 19.7-14.7v-.5H366v.3c-1.8 5.3-5.9 8.1-12.2 8.1-8.5 0-14-7-14-17.9 0-10.7 5.4-17.6 14-17.6 6.8 0 11 3.8 12.2 8.5h7.6v-.2c-1.4-8.4-8.3-15-19.8-15-13.3 0-21.7 9.5-21.7 24.3 0 15 8.4 24.7 21.7 24.7Zm47.4-.5c1.5 0 3-.2 4.4-.4v-6.5a32 32 0 0 1-3.5.1c-4.9 0-6.8-2.2-6.8-7.8V70.4h10.3v-6.3h-10.3V51.8h-8v12.3H380v6.3h7.5v28.8c0 9 4 12.6 13.8 12.6Z"/><ellipse cx="81.9" cy="81.3" stroke="#04DCFC" stroke-width="7" rx="27.5" ry="72.5" transform="rotate(-30.3 81.9 81.3)"/><path stroke="#04DCFC" stroke-width="7" d="M91.6 26.5a47.6 47.6 0 0 1 15.7-8.8c4-1 7.6-1 10.5.6 3 1.6 4.7 4.7 5.8 8.7a48 48 0 0 1 .5 18 143.6 143.6 0 0 1-18.3 49.9A143.6 143.6 0 0 1 72 136a47.6 47.6 0 0 1-15.7 8.8c-4 1.1-7.5 1.1-10.5-.6-2.9-1.6-4.7-4.7-5.7-8.7a48 48 0 0 1-.5-18c1.9-14.3 8.1-32 18.3-49.9a143.6 143.6 0 0 1 33.6-41.1Z"/><path stroke="#04DCFC" stroke-width="7" d="M14 72.3a46 46 0 0 1 15.4-9.4c13.3-5.6 31.9-9 52.3-9.1 20.5-.1 39 3.1 52.5 8.5a47.6 47.6 0 0 1 15.4 9.2c3 3 4.8 6 4.8 9.4 0 3.3-1.8 6.5-4.7 9.4a47.6 47.6 0 0 1-15.3 9.4c-13.4 5.5-32 9-52.4 9-20.5.2-39-3-52.4-8.5A47.6 47.6 0 0 1 14 91c-3-2.9-4.7-6-4.7-9.4 0-3.3 1.7-6.4 4.6-9.3Z"/><circle cx="81.9" cy="81.3" r="13.5" fill="#04DCFC" stroke="#04DCFC" transform="rotate(-30.3 81.9 81.3)"/></g></svg>