<svg xmlns="http://www.w3.org/2000/svg" fill="none" viewBox="0 0 256 256"><rect width="256" height="256" fill="#3178c6" rx="20"/><path fill="#fff" fill-rule="evenodd" d="M150.5 200.5V228c4.5 2.3 9.8 4 16 5.2a101.4 101.4 0 0 0 38.2-.2 47 47 0 0 0 15.7-6.3A31.9 31.9 0 0 0 235 198a30.5 30.5 0 0 0-8.7-23.2c-2.8-3-6.2-5.6-10.2-8-4-2.3-8.4-4.5-13.3-6.6L193 156a49.5 49.5 0 0 1-7.3-4.3 19 19 0 0 1-4.7-4.7 9.9 9.9 0 0 1-.2-10.7c1-1.5 2.4-2.8 4.2-4 1.8-1 4-1.9 6.5-2.5a54.8 54.8 0 0 1 23.7 1.2 53.7 53.7 0 0 1 7.6 2.8 41.7 41.7 0 0 1 6.8 3.8v-25.9c-4.2-1.6-8.8-2.8-13.8-3.5S205 107 198.6 107s-12.8.7-18.6 2.1c-5.9 1.4-11 3.6-15.5 6.6a33 33 0 0 0-10.6 11.5 33.5 33.5 0 0 0-3.9 16.6c0 8.2 2.4 15.2 7.1 21 4.8 5.8 12 10.8 21.7 14.8a291.5 291.5 0 0 1 10.6 4.6c3.3 1.5 6.1 3 8.5 4.6s4.3 3.4 5.7 5.3 2 4 2 6.5a9.9 9.9 0 0 1-1.3 5c-.8 1.4-2.1 2.8-3.9 3.9s-4 2-6.6 2.6-5.6 1-9.2 1a52.5 52.5 0 0 1-34-12.6zm-46-68.8H140V109H41v22.7h35.3V233h28.2z" clip-rule="evenodd"/></svg>