<svg data-name="Layer 1" xmlns="http://www.w3.org/2000/svg" width="817.22" height="523.62"><path fill="#e6e6e6" d="M.35.46h816.87v523.16H.35z"/><path fill="#fff" d="M23.71 66.08h770.15v426.59H23.71z"/><path fill="#76a9fa" d="M0 0h816.87v34.7H0z"/><circle cx="25.79" cy="17.74" r="6.43" fill="#fff"/><circle cx="50.2" cy="17.74" r="6.43" fill="#fff"/><circle cx="74.62" cy="17.74" r="6.43" fill="#fff"/><path fill="#e6e6e6" d="M118.47 101.17H269.1v163.42H118.47zM333.47 101.17H484.1v163.42H333.47zM548.47 101.17H699.1v163.42H548.47zM118.47 294.17H269.1v163.42H118.47zM333.47 294.17H484.1v163.42H333.47zM548.47 294.17H699.1v163.42H548.47z"/><circle cx="176.97" cy="174.52" r="25.46" fill="#ffb9b9"/><path d="M167.03 194.01s3.18 15.12 3.18 16.71 15.12 8.76 15.12 8.76l13.53-2.39 4.77-14.32s-7.96-11.94-7.96-16.71Z" fill="#ffb9b9"/><path d="M154.9 154s8.08-17.51 23.57-13.47 24.26 10.1 24.93 16.17-.34 15.16-.34 15.16-1.68-12.46-12.46-9.77-27.62.67-27.62.67l-2.7 24.26s-3.03-4.38-6.4-1.69-9.76-25.93 1.01-31.32Z" fill="#2f2e41"/><path d="m257.74 258.47-6.36-28.65c-3.2-9.55-11.14-17.5-11.14-17.5L201 198.52h-.01a16.48 16.48 0 0 1-11.67 15.4c-11.94 3.97-20.16-9.41-20.16-9.41l-33.17 25.3s-10.34 8.77-9.54 25.48l-1.1 9.3H260.8Z" fill="#76a9fa"/><ellipse cx="391.4" cy="175.98" rx="34.56" ry="36.69" fill="#2f2e41"/><circle cx="422.06" cy="213.32" r="18.18" fill="#2f2e41"/><path fill="#9f616a" d="m409.4 188.97 9.74 25.32-24.67 10.39-2.17-4.91-7.57-17.16 24.67-13.64z"/><circle cx="389.92" cy="183.78" r="21.75" fill="#9f616a"/><path d="M372.14 181.39c13.67-9.12 17.76-11.3 33.43-7.78l.94-22.86-40.5 8.5Z" fill="#2f2e41"/><path d="m460.05 233.12-.6.07a.38.38 0 0 0-.05-.06c-2.38-2.38-13.74-6.71-22.21-9.71h-.01c-5.38-1.91-9.6-3.28-9.6-3.28l-10.23-10.53c-2.58 2.9-8.03 5.14-13.21 6.72a103.74 103.74 0 0 1-12.08 2.88h-.01l-2.12 6.77s-24.03 18.19-25.97 20.13h-.01v.02a1.06 1.06 0 0 0-.18.76v.05a88.17 88.17 0 0 0-1.86 17.65h104.64v-6.14c0-8.44-6.5-25.33-6.5-25.33Z" fill="#575a89"/><path d="M652.47 264.59h-51.74l-2.85-28.11-.17-1.71-.35-3.4-1.43-14.16-1.8 15.22-3.77 32.16h-9.4l.35-10.01.35-10.15.15-4.1 1.93-55.63a39.73 39.73 0 0 1 7.93-24.5 30.94 30.94 0 0 1 24.99-12.08 31.84 31.84 0 0 1 25.42 12.53 40.26 40.26 0 0 1 8.3 24.86l.9 33.68Z" fill="#2f2e41"/><circle cx="616.66" cy="181.85" r="22.76" fill="#fbbebe"/><path d="M605.28 198.1s6.5 21.95 0 28.45-8.13 8.94-8.13 8.94l18.7 25.2 32.5-39.83s-22.75-6.5-17.06-24.38ZM675.49 264.59h-19.2l-.32-3.29-.29-3.04 8.84-1.11 10.66-1.33.12 3.41.19 5.36z" fill="#fbbebe"/><path d="M676.8 259.06s-3.25-20.32-5.69-28.44-4.87-8.13-4.87-8.13c-2.87-2.87-9.77-3.38-14.96-3.3-3.64.04-6.44.36-6.44.36l-29 30.58-14.6-19.41v-.01a21.25 21.25 0 0 0-3.88.67 25.76 25.76 0 0 0-3.22 1.05 44.18 44.18 0 0 0-12.33 7.9h-.01a47.31 47.31 0 0 0-3.34 3.29 95.19 95.19 0 0 0-7.22 20.97h92.9l.2-4.18v-.01Z" fill="#76a9fa"/><path d="M597.56 178.2c14.7-7.93 20.73-7.6 39 0l4.89-11.89a8.45 8.45 0 0 0-8.44-8.44h-32.7a8.45 8.45 0 0 0-8.44 8.44ZM191.79 333.72a6 6 0 0 0-3.48.78 9.07 9.07 0 0 0-2.35 3.1 37.13 37.13 0 0 1-10.12 11.43c-3 2.2-6.82 4.95-6.31 9a12.18 12.18 0 0 0 1.47 3.8c2.77 5.6 10.34 9.93 9.6 16.32 2.75-4.61-.94-6.9 1.82-11.5 1.3-2.2 3.59-4.68 5.57-3.3.66.46 1.1 1.29 1.79 1.7 1.65.96 3.4-.89 4.86-2.2 5.03-4.51 12.18-3.33 18.44-1.92 2.95.66 6.2 1.53 7.95 4.36 2.3 3.71-2.19 7.72-3.32 11.92a2.29 2.29 0 0 0 2.46 2.85c1.88-.19 4.1-.34 4.21-1.17 2.36.09 5.26-.18 6.27-2.64a10.35 10.35 0 0 0 .49-3c.37-4.14 2.12-7.91 3.28-11.85s1.67-8.54-.29-12.03a13.92 13.92 0 0 0-2.57-3.12c-11.13-10.77-25.76-12.54-39.77-12.53Z" fill="#2f2e41"/><path d="M183.01 386.22s2.42 20.17-6.45 21.78 8.06 29.04 8.06 29.04l40.34 4.84-9.68-32.27s-6.45-2.42-2.42-18.55-29.85-4.84-29.85-4.84Z" fill="#9f616a"/><circle cx="201.16" cy="375.33" r="24.2" fill="#9f616a"/><path d="M159.5 457.59c4.29-16.83 10.2-39.5 10.2-39.5s2.3.47 5.92 1a140.11 140.11 0 0 0 15.96 1.45c6.84.19 14.04-.26 19.6-2.2a18.36 18.36 0 0 0 5.8-3.08 11.16 11.16 0 0 0 1.94-2.01c9.68-12.91 13.7 36.3 13.7 36.3l.76 8.04Z" fill="#76a9fa"/><path d="M236.84 509.59q-.48 0-.96.03l.46-.86.5.83Z" fill="#ffb8b8"/><path d="M192.97 340.05a5.5 5.5 0 0 0-2.83.55 6.6 6.6 0 0 0-1.92 2.2 27.87 27.87 0 0 1-8.23 8.07c-2.45 1.56-5.56 3.5-5.14 6.37a7.96 7.96 0 0 0 1.2 2.69 21.14 21.14 0 0 1 2.56 13.17l6.73-9.78c1.07-1.55 2.92-3.3 4.53-2.33.54.33.9.92 1.46 1.2 1.34.69 2.77-.62 3.96-1.55 4.1-3.19 9.91-2.35 15-1.36 2.41.47 5.06 1.09 6.48 3.08 2.36 3.32-.1 8.11 1.27 11.95a3.52 3.52 0 0 0 1.46-2.33c1.92.06 4.28-.13 5.1-1.87a6.44 6.44 0 0 0 .4-2.12c.3-2.92 1.73-5.59 2.68-8.37s1.35-6.04-.24-8.5a10.29 10.29 0 0 0-2.1-2.21c-9.05-7.61-20.97-8.87-32.37-8.86ZM190.68 418.89c-5.52-6.31-8.8-15.51-8.95-15.92v-.01s-8.8-5.04-11.22-.2-25.01 16.94-27.43 16.94a.32.32 0 0 1-.06.02c-.96.32-12.98 4.69-16.07 20.96a121.77 121.77 0 0 0-1.34 16.9h65.79c.68-7.12 1.19-13.8 1.39-19.55.29-8.03 0-14.27-1.21-17.5a5.1 5.1 0 0 0-.9-1.64ZM247.25 423.43l-.1-.5a3.72 3.72 0 0 0-.54-1.2.08.08 0 0 1-.01-.03c-4.66-7.22-34.63-17.16-34.63-17.16l-1.12 3.87.34 9.94a2931.29 2931.29 0 0 1 1.1 39.24h44.83a261.8 261.8 0 0 0-9.87-34.16Z" fill="#2f2e41"/><path d="m666.69 457.59 3.43-16.76 3.19-1.35h.02c.29.12 3.76 1.59 3.76 7.16 0 1.12-.17 5.15-.45 10.95Z" fill="#575a89"/><circle cx="630.66" cy="371.19" r="27.86" fill="#ffb8b8"/><path fill="#ffb8b8" d="m648.07 387.44-2.32 47.59-35.98-20.89 4.64-26.7h33.66z"/><path fill="#76a9fa" d="m658.52 437.35-2.36 20.24h-18.89l-20.5-39.39-5.78-11.09-2.77-1.81 3.2-.73 2.54 1.83 28.31 20.51 4.53-13.63.12-.35 1.15-3.43 10.45 27.85z"/><path d="M613.83 343.92s3.48-17.41 23.21-13.93l-2.32 1.16s18.57-2.32 16.25 8.12c0 0 15.09 9.29 11.6 19.73a118.1 118.1 0 0 0-4.64 18.57l-3.48-3.48s-3.48-23.21-24.37-20.89c-15.67 1.74-22.05 9.14-23.69 14.47a47.1 47.1 0 0 1-2.86 7.3l-1.3.28s-6.97-25.53 11.6-31.33ZM673.33 439.49l-.02-.01-14.8-13.74v-9.28l-11.41-9-.17 5.47-1.18 37.19-19-26.12-12.8-17.6-2.3-3.15.57-2.95-7.1 8.03-25.65 19.25-2.2 1.65a69.99 69.99 0 0 0-6.96 8.12c-.7 1.03-3.83 9.23-7.92 20.24h114.25c.28-5.8.45-9.83.45-10.95 0-5.57-3.47-7.04-3.76-7.15ZM406.49 340.6c-18.88 0-34.18 16.97-34.18 37.92v26.62h8.19l4.73-9.86-1.18 9.86h52.61l4.31-8.97-1.08 8.97h5.93v-20.9c0-24.1-17.61-43.65-39.33-43.65Z" fill="#2f2e41"/><path d="M378.9 457.59h-22.22l-.21-18.13-.01-.56 4.45-5.01.08-.1 16.99 10.77Z" fill="#d0cde1"/><circle cx="403.46" cy="377.09" r="24.33" fill="#fbbebe"/><path d="M389.51 391.69s7.14 36.98 3.9 40.87 34.39-7.13 34.39-7.13-12.33-25.3-5.84-39.58Z" fill="#fbbebe"/><path d="M455.53 416.7h-.01a5.59 5.59 0 0 0-2.8-2.72 200.58 200.58 0 0 0-12.25-4.72 25.93 25.93 0 0 0-18.34.57c-.57.23-1.13.48-1.68.76 0 0-23.8 4.53-26.62 3.96a7.03 7.03 0 0 0-.64-.1 11.23 11.23 0 0 0-1.3-.1 28.5 28.5 0 0 0-15.8 3.92c-7.8 4.53-19.38 12.56-19.62 20.38l-.22.25.22 18.69h104.42c.2-17.91.33-31.37.33-32.28 0-2.83-5.7-8.61-5.7-8.61Z" fill="#76a9fa"/><path d="M416.2 351.04a17.92 17.92 0 0 0-14.14-7.22h-.67c-12.94 0-23.43 11.71-23.43 26.15h4.34l.7-5.33 1.03 5.33h25.7l2.16-4.5-.54 4.5h5.06q3.54 17.59-10.17 35.17h8.61l4.31-9.02-1.08 9.02h16.43l3.23-20.74c0-15.53-9.02-28.7-21.54-33.36Z" fill="#2f2e41"/><circle cx="420.93" cy="340.42" r="12.8" fill="#2f2e41"/></svg>