<svg xmlns="http://www.w3.org/2000/svg" viewBox="0 0 1108 731"><path d="m768 331 7-3 2-1a60 60 0 0 1 15-115l-5 24 18-24a60 60 0 0 1 52 67l-1 4 15-15c8-12 11-26 13-44 6-34 11-69 15-104a60 60 0 0 1-42-65 61 61 0 0 1 3-12v-1l2-4 1-1 2-4 1-2 1-2 2-2a60 60 0 0 1 74-17l-6 31 18-24a60 60 0 0 1 17 69l-1 1-1 2-1 3-2 2-1 3-2 2-3 4-1 1a59 59 0 0 1-16 12l-1 1-5 2h-1l-4 2h-2l-4 1h-2l-3 1h-6l-6 44a60 60 0 0 1 86-11l-16 27 26-17a60 60 0 0 1 11 45 59 59 0 0 1-4 16 60 60 0 0 1-112-4v4c-3 15-6 34-17 50-7 11-17 18-27 25l-19 13a60 60 0 0 1-25 14l-32 15-7 2-19 8h3a60 60 0 0 1 51 49l-43 23 42-2a59 59 0 0 1-11 26 60 60 0 0 1-83 12l2 4 5 7c18 35 19 65 3 85l-13-10c16-20 3-50-5-67l-4-7c-12-22-25-47-20-73 8-40 51-57 86-70ZM270 519l-6-2-1-1a47 47 0 0 0-12-90l3 19-14-19a47 47 0 0 0-40 53l1 2a56 56 0 0 1-12-11c-6-9-8-20-10-34l-12-81a47 47 0 0 0 33-51l-1-5v-1l-1-4h-1l-1-3v-1a48 48 0 0 0-4-7l-1-1a47 47 0 0 0-59-14l5 25-14-19a46 46 0 0 0-13 54l1 1 1 2 1 2 1 1 1 3 1 1 2 3 1 1 2 2 2 1 2 2 1 1 2 1a42 42 0 0 0 4 2l1 1 4 2h1l3 1h1l3 1h2a49 49 0 0 0 4 1h3l5 34a47 47 0 0 0-68-8l12 21-19-13a47 47 0 0 0-9 34 46 46 0 0 0 3 13 47 47 0 0 0 87-4l1 4c2 12 4 27 12 39 6 8 14 14 22 20l15 10a47 47 0 0 0 19 10c8 5 17 9 25 12l6 2 15 6h-3a47 47 0 0 0-39 39l33 18-33-2a47 47 0 0 0 73 29 169 169 0 0 0-5 9c-14 28-15 51-3 66l11-8c-13-15-3-39 4-52l3-5c9-17 20-37 16-57-7-31-40-44-67-55Z" fill="#f2f2f2"/><ellipse cx="554" cy="707.7" rx="554" ry="23.5" fill="#3f3d56"/><ellipse cx="554" cy="707.7" rx="554" ry="23.5" opacity=".1"/><ellipse cx="554" cy="694.7" rx="554" ry="23.5" fill="#3f3d56"/><path d="M85 686c-3-5 0-12 4-17s9-10 9-16c0-9-10-14-18-19a85 85 0 0 1-15-13 23 23 0 0 1-5-6l-1-12 2-38" fill="none" stroke="#3f3d56" stroke-miterlimit="10" stroke-width="4"/><path d="M46 564a14 14 0 0 1 7-11l3 6v-8a14 14 0 0 1 5 0 14 14 0 1 1-15 13Zm25 95a14 14 0 0 0 27-5 14 14 0 0 0-1-6 14 14 0 0 0-27 0l9 7-9-2a14 14 0 0 0 1 6Zm7-27a14 14 0 0 0 5-27v5l-4-6a14 14 0 0 0-1 28Zm-34-23a14 14 0 0 0 1-28 14 14 0 0 0-7 2l2 7-5-5a14 14 0 0 0-4 10 13 13 0 0 0 0 4 14 14 0 0 0 13 10Z" fill="#ec4899"/><path d="m48 568 10 2c4 1 6-1 9-3l2-5a10 10 0 0 1 4-3 14 14 0 1 1-27 9h2Zm-4 41a14 14 0 0 0 13-20 10 10 0 0 0-2 3l-3 5c-2 2-6 3-10 3l-10-1h-1a14 14 0 0 0 13 10Zm34 23a14 14 0 0 0 14-20 11 11 0 0 0-3 3l-3 5c-3 3-7 3-10 3l-11-1a14 14 0 0 0 13 10Zm-7 27a14 14 0 0 0 27-5 14 14 0 0 0-1-6 14 14 0 0 0-3 3l-4 5c-3 2-8 4-12 4a62 62 0 0 1-7-1Z" opacity=".1"/><path d="M106 680s-11 0-14-3-17-5-18-1-17 19-4 19 29-2 32-4 4-11 4-11Z" fill="#656380"/><path d="M70 694c12 0 29-2 32-4 2-2 3-7 4-10s-1 9-4 11-20 4-32 4c-4 0-5-1-5-3 0 1 2 2 5 2Z" opacity=".2"/><path d="M1055 695c-3-5 0-12 4-17s9-10 9-16c0-9-10-14-18-19a85 85 0 0 1-15-13 23 23 0 0 1-5-6l-1-12 2-38" fill="none" stroke="#3f3d56" stroke-miterlimit="10" stroke-width="4"/><path d="M1016 573a14 14 0 0 1 7-11l3 6v-8a14 14 0 0 1 5 0 14 14 0 1 1-15 13Zm25 95a14 14 0 0 0 27-5 14 14 0 0 0-1-6 14 14 0 0 0-27 0l9 7-9-2a14 14 0 0 0 1 6Zm7-27a14 14 0 0 0 5-27v5l-4-6a14 14 0 0 0-1 28Zm-34-23a14 14 0 0 0 1-28 14 14 0 0 0-7 2l2 7-5-5a14 14 0 0 0-4 10 13 13 0 0 0 0 4 14 14 0 0 0 13 10Z" fill="#ec4899"/><path d="m1018 577 10 2c4 1 6-1 9-3l2-5a10 10 0 0 1 4-3 14 14 0 1 1-27 9h2Zm-4 41a14 14 0 0 0 13-20 10 10 0 0 0-2 3l-3 5c-2 2-6 3-10 3l-10-1h-1a14 14 0 0 0 13 10Zm34 23a14 14 0 0 0 14-20 11 11 0 0 0-3 3l-3 5c-3 3-7 3-10 3l-11-1a14 14 0 0 0 13 10Zm-7 27a14 14 0 0 0 27-5 14 14 0 0 0-1-6 14 14 0 0 0-3 3l-4 5c-3 2-8 4-12 4a62 62 0 0 1-7-1Z" opacity=".1"/><path d="M1076 689s-11 0-14-3-17-5-18-1-17 19-4 19 29-2 32-4 4-11 4-11Z" fill="#656380"/><path d="M1040 703c12 0 29-2 32-4 2-2 3-7 4-10s-1 9-4 11-20 4-32 4c-4 0-5-1-5-3 0 1 2 2 5 2Z" opacity=".2"/><path d="m746 331-20-6 3-14c15-73 5-133-29-152-32-19-85 1-139 47l-15 15-11-10c-56-50-112-71-146-51-32 19-42 74-28 144l4 20-23 8c-65 23-107 59-107 96 0 38 45 77 113 100l17 6-5 22c-13 68-3 123 30 141 33 20 89 0 144-48l13-12 16 15c53 46 105 64 138 46 33-20 44-78 30-149l-4-17 11-3c72-24 118-62 118-101 0-38-43-74-110-97Z" fill="#53c1de"/><path d="m730 503-10 4a622 622 0 0 0-32-79 623 623 0 0 0 30-78l19 6c57 20 93 49 93 72 0 24-38 55-100 75Zm-25 51c6 31 7 60 3 82-4 20-12 33-21 39-19 11-61-4-106-43l-16-14a624 624 0 0 0 52-66 620 620 0 0 0 84-13l4 15ZM446 673c-19 6-34 7-43 1-20-11-28-55-17-113l5-21a626 626 0 0 0 84 12 645 645 0 0 0 53 66l-12 11c-24 21-48 36-70 44Zm-89-170c-30-10-55-23-73-38-15-13-23-26-23-37 0-23 34-52 90-71l22-7a637 637 0 0 0 30 79 646 646 0 0 0-31 79l-15-5Zm30-204c-12-60-4-105 15-116 21-12 67 5 116 48l9 9a636 636 0 0 0-53 65 648 648 0 0 0-83 13l-4-19Zm268 66-19-31c20 2 39 6 57 10a566 566 0 0 1-20 53l-18-32ZM546 259a569 569 0 0 1 36 44q-36-2-73 0c12-16 24-31 37-44ZM436 365l-18 32c-8-18-14-36-20-53 18-4 37-8 57-10l-19 31Zm19 159a565 565 0 0 1-57-9c5-18 12-37 20-55l18 32 19 32Zm91 75c-12-13-25-28-37-45l36 1 38-1a564 564 0 0 1-37 45Zm127-140a563 563 0 0 1 21 54 561 561 0 0 1-58 10l19-31 18-33Zm-41 19q-14 25-30 49a799 799 0 0 1-113 0l-30-48-27-50q12-26 27-51l30-48 56-2 57 2 30 48 27 50-27 50Zm55-296c21 12 29 60 16 124l-3 12a636 636 0 0 0-83-13 625 625 0 0 0-53-65l15-14c45-40 88-55 108-44Z" fill="#fff"/><path d="M545 372a56 56 0 1 1-55 56 55 55 0 0 1 55-56" fill="#53c1de"/><path d="M559 20a17 17 0 1 1-16-16 17 17 0 0 1 16 16Z" fill="#3f3d56"/><path d="M529 25a17 17 0 0 1 13-25 17 17 0 1 0 1 33 17 17 0 0 1-14-8Zm-7 19h45v69h-45z" fill="#3f3d56"/><path opacity=".1" d="M522 44h45v69h-45z"/><path d="M452 295s-5 13-16 15l-18 5 27 17 14-2s2-18 7-22-14-13-14-13Zm192 0s5 13 16 15l18 5-27 17-14-2s-2-18-7-22 14-13 14-13Z" fill="#a0616a"/><path d="M515 180s-8 4-10 11c0 0-13 4-20 15 0 0-9 10-10 14l-15 34s-14 44-21 49c0 0 23-5 27 18 0 0 5 0 11-21s20-46 20-46 5-18 9-21 11-17 17-13 45-1 45-1 23 11 24 18 4 8 5 14 22 53 22 53l6 16s13-32 30-14c0 0-1-12-6-19s-28-63-28-63l-5-11c-2-3-21-21-27-21 0 0-4-9-8-10Zm-54 146a29 29 0 0 1-28-4 56 56 0 0 0-13-7c-6-3-13-4-16 0-4 7 51 26 51 26s7-4 6-15Zm174 0a29 29 0 0 0 28-4 56 56 0 0 1 13-7c6-3 13-4 16 0 4 7-51 26-51 26s-7-4-6-15Z" fill="#3f3d56"/><path d="M534 83c0 2-1 4-3 5l-5 1a11 11 0 0 0-8 7 18 18 0 0 0 0 11 39 39 0 0 0 1 5l7 13a59 59 0 0 0 10 9l7 5a22 22 0 0 0 5 0l7-1c3-1 3-5 5-8l5-8a29 29 0 0 0 2-6l3-13c1-4 1-9-1-13a2 2 0 0 0-1-1 3 3 0 0 0-1 0 16 16 0 0 1-9-2 4 4 0 0 1-2-1 5 5 0 0 1 0-2 22 22 0 0 0-2-4 3 3 0 0 0 0-2 3 3 0 0 0-2 0 114 114 0 0 0-13-2l-4 1-1 6Z" fill="#a0616a"/><path d="M534 83c0 2-1 4-3 5l-5 1a11 11 0 0 0-8 7 18 18 0 0 0 0 11 39 39 0 0 0 1 5l7 13a59 59 0 0 0 10 9l7 5a22 22 0 0 0 5 0l7-1c3-1 3-5 5-8l5-8a29 29 0 0 0 2-6l3-13c1-4 1-9-1-13a2 2 0 0 0-1-1 3 3 0 0 0-1 0 16 16 0 0 1-9-2 4 4 0 0 1-2-1 5 5 0 0 1 0-2 22 22 0 0 0-2-4 3 3 0 0 0 0-2 3 3 0 0 0-2 0 114 114 0 0 0-13-2l-4 1-1 6Z" opacity=".1"/><path d="M526 90a27 27 0 0 0-7-1c-6-1-12 1-15 6a15 15 0 0 0-3 12 24 24 0 0 0 5 10 32 32 0 0 1 4 5c2 3 2 7 3 10l5 24c1 8 1 18-6 23l-2 3c0 2 2 3 5 3 6 1 13 2 19 0l8-2c7-2 14 1 21 2a91 91 0 0 0 14 1 8 8 0 0 0 4 0 3 3 0 0 0 2-3 5 5 0 0 0-2-2c-3-4-4-10-5-15l-3-18c-2-10-3-20 1-29 4-6 10-11 13-17a10 10 0 0 0 2-6c-1-3-4-5-7-7a23 23 0 0 0-17 0l-2 13-1 7a89 89 0 0 1-3 12 13 13 0 0 1-2 4 11 11 0 0 1-4 3 23 23 0 0 1-10 2 14 14 0 0 1-4 0 19 19 0 0 1-6-5 10 10 0 0 1-2-1 10 10 0 0 1-1-3 55 55 0 0 1-2-8l-1-6-1-17Z" fill="#ec4899"/><path d="M520 204s-3 32 12 37 2-26 2-26l-5-9Zm50 0s3 32-12 37-2-26-2-26l5-9Z" fill="#a0616a"/><path d="m507 100-5 7 5 32a62 62 0 0 0 2 10s1 14 1 19l3 15a65 65 0 0 0 3 14l4 15c1 0 4-9 15 4a7 7 0 0 0 0-10s-3-16-3-25-7-48-7-48-4-45-18-33Z" opacity=".1"/><path d="m506 99-5 8 5 31a62 62 0 0 0 2 10s1 14 1 20 3 14 3 14a65 65 0 0 0 3 15l4 14s3-8 15 4a7 7 0 0 0 0-10s-3-16-3-24-7-48-7-48-4-45-18-34Z" fill="#ec4899"/><path d="m584 95 3 3s3 21-4 46l-3 23-4 24-2 8a2 2 0 0 0 0 3l-4 13s-5-7-16 1c0 0-3-4 0-9s2-5 1-7 3-7 3-8l4-28 3-36c2-5 2-18 1-26 0-9 11-14 17-8l1 1Z" opacity=".1"/><path d="m586 94 3 3s3 20-5 46l-2 23-5 24-1 7a2 2 0 0 0 0 3l-4 13s-5-6-16 2c0 0-3-5-1-9l2-7c-1-1 3-7 3-8l4-29s1-26 3-35 1-36 1-36 9-6 18 3Z" fill="#ec4899"/><circle cx="545.9" cy="61.6" r="23.7" fill="#a0616a"/><path d="M558 26a17 17 0 0 1-31 0c9-3 19 0 19 0 5-2 9-1 12 0Z" opacity=".1"/><path d="M546 27s-46-16-34 62c0 0 10 6 17 2 0 0-5-54 16-51s17 50 17 50 12 4 15-3-1-70-31-60Z" fill="#3f3d56"/><path d="M545 36c-14-2-16 23-16 39 0-16 3-37 16-35 15 1 17 26 17 40 0-13-1-42-17-44Zm-33 49a159 159 0 0 1-2-20 152 152 0 0 0 2 24s10 6 17 2v-3c-8 4-17-3-17-3Zm65-1c-3 6-13 3-15 3v3s12 4 15-3l1-10-1 7Z" opacity=".1"/><path d="M827 673c4-9-1-20-7-27s-14-16-14-26c1-15 16-23 28-31a135 135 0 0 0 25-20c3-3 6-6 7-10 3-6 3-12 3-18l-3-61" fill="none" stroke="#3f3d56" stroke-miterlimit="10" stroke-width="4"/><path d="M889 478a22 22 0 0 0-11-18l-5 10v-12a22 22 0 1 0 16 20Zm-40 152a22 22 0 1 1 1-18l-14 11 15-3a22 22 0 0 1-2 10Zm-11-44a22 22 0 0 1-7-43v9l5-10a22 22 0 1 1 2 45Zm54-36a22 22 0 1 1 10-42l-4 11 8-8a22 22 0 0 1-14 39Z" fill="#ec4899"/><path d="M886 484c-5 1-10 3-16 3s-10-1-14-5l-4-7a16 16 0 0 0-6-6 22 22 0 1 0 42 15h-2Zm6 66a22 22 0 0 1-21-32 16 16 0 0 1 4 5l5 7c3 4 9 6 15 6l16-3h2a22 22 0 0 1-21 17Zm-54 36a22 22 0 0 1-22-31 18 18 0 0 1 5 5l5 7c4 4 10 6 16 6l16-2a22 22 0 0 1-20 15Zm11 44a22 22 0 0 1-41-18 22 22 0 0 1 5 4l6 8c5 4 12 6 19 6a97 97 0 0 0 11 0Z" opacity=".1"/><path d="M793 663s18-1 23-4 27-9 28-3 27 30 7 31-46-3-52-7-6-17-6-17Z" fill="#656380"/><path d="M851 685c-20 0-46-4-51-7-4-2-6-11-6-15h-1s1 14 6 17 32 7 52 7c6 0 8-2 8-5-1 1-3 3-8 3Z" opacity=".2"/><path d="m323 43-18 11 11-20a18 18 0 0 0-11-4 22 22 0 0 1-4 0l-6 4 2-5a22 22 0 0 1-11-8l-11 7 7-13c-6-8-15-12-24-12-12 0-22 7-29 17a21 21 0 0 1-19 10c-13 0-23 15-23 33s10 32 23 32a17 17 0 0 0 8-2c8-5 19-5 28-1a29 29 0 0 0 23 0c9-4 20-3 28 1a17 17 0 0 0 8 2c13 0 23-15 23-32a41 41 0 0 0-5-20Zm477 23-9 6 6-10a9 9 0 0 0-6-2 11 11 0 0 1-2 0l-3 2 1-2a11 11 0 0 1-5-4l-6 3 4-6a16 16 0 0 0-13-7c-5 0-10 4-14 9a11 11 0 0 1-9 5c-7 0-12 7-12 16s5 16 12 16a9 9 0 0 0 4-1 17 17 0 0 1 13 0 15 15 0 0 0 12 0 17 17 0 0 1 14 0 9 9 0 0 0 4 1c6 0 12-7 12-16a20 20 0 0 0-3-10ZM204 216l15 9-9-16a14 14 0 0 1 9-3 17 17 0 0 0 3 0l5 3-2-4a18 18 0 0 0 9-7l9 6-6-10c5-6 12-10 20-10 9 0 17 5 23 14a17 17 0 0 0 15 8c10 0 19 11 19 26s-9 25-19 25a14 14 0 0 1-6-1 27 27 0 0 0-23-1 23 23 0 0 1-19 0 27 27 0 0 0-22 1 14 14 0 0 1-6 1c-10 0-19-11-19-25a33 33 0 0 1 4-16Z" fill="#f2f2f2"/></svg>
