<svg version="1.0" xmlns="http://www.w3.org/2000/svg" width="1160" height="1160" viewBox="0 0 870 870"><path d="M335.8 2.6c-11.8 2.8-23.1 10.9-29.7 21.3-9.6 15-9.6 36.2 0 51.2 10.2 16.1 30.1 25.2 48.1 22.1 3.9-.7 9-2.1 11.4-3.1l4.3-1.9 8 9.8 8.1 9.9V243h18V104.2l-9.8-11.9-9.9-11.9 3-4.3c7.6-11 10-28.4 5.6-41.4-8-24-32.9-38-57.1-32.1zm24.1 20.3c17.8 9.2 22.1 33 8.4 46.6-6 6-11.4 8.7-18.8 9.2-7.5.6-13-.8-19-5-6.3-4.3-10.1-9.9-12.1-17.6-1.5-5.9-1.5-7 0-13 .9-3.6 2.9-8.4 4.5-10.6 3.2-4.5 10.7-10 15.5-11.5 5.2-1.6 16.6-.6 21.5 1.9zM460.3 50.9c-7.5 2.5-13.6 8-17.2 15.3a29.9 29.9 0 0 0 8.1 36.9c2.7 2.1 6.1 4.2 7.4 4.5l2.4.6V243h18V108.2l2.4-.6c1.3-.3 4.7-2.4 7.4-4.5 15-11.9 15-35.3 0-47.1-8.5-6.8-18.6-8.6-28.5-5.1zm16.2 19.3c6.4 5 6.5 13.1.4 18.3-6.1 5.1-15.3 2-17.9-5.9-2.2-6.8 3.7-14.6 11-14.6 2.3 0 4.8.8 6.5 2.2zM629.7 95c-10.2 2.6-20.8 11.4-24.9 20.8-2.4 5.3-3.5 17.7-2.1 23.2l.9 3.5-33.5 19.6-33.6 19.5-.3 30.7-.2 30.7h18l.2-25.1.3-25.1 29.9-17.4c26.9-15.8 30-17.3 31.5-16 .9.8 4.3 2.8 7.6 4.3 5.1 2.3 7.3 2.8 14.5 2.7 11 0 18.6-3.2 26-11 7.7-8.2 9.5-12.8 9.5-24.9 0-12.1-1.8-16.7-9.5-24.9-8.5-9-22.8-13.5-34.3-10.6zm15.9 19.9c12.9 5.9 12.9 25.3 0 31.2-7.7 3.5-16.6 1.5-20-4.4-5.6-9.7-5.8-10.3-4.6-14.9.7-2.3 2.1-5.6 3.3-7.2 2.4-3.4 8.9-6.6 13.7-6.6 1.9 0 5.3.9 7.6 1.9z"/><path d="M310.3 116.9c-7.5 2.5-13.6 8-17.2 15.3a29.9 29.9 0 0 0 8.1 36.9c2.7 2.1 6.1 4.2 7.4 4.5l2.4.6V243h18v-68.8l2.4-.6c1.3-.3 4.7-2.4 7.4-4.5 15-11.9 15-35.3 0-47.1-8.5-6.8-18.6-8.6-28.5-5.1zm16.2 19.3c6.4 5 6.5 13.1.4 18.3-6.1 5.1-15.3 2-17.9-5.9-2.2-6.8 3.7-14.6 11-14.6 2.3 0 4.8.8 6.5 2.2zM38.8 188.6a48.97 48.97 0 0 0-34.7 32.1c-4.3 12.7-2.2 29.1 5 40.4 9.9 15.6 30 25.1 47 22.3l6.2-1.1 4.9 10.4c2.7 5.8 8.6 18.4 13.2 28.1l8.2 17.7 72.2.3 72.2.2v-18l-66-.2-66-.3-10.9-23.2-10.9-23.1 4-3.9c10-9.6 14.7-20.7 14.8-34.6.1-31.5-28.9-54.5-59.2-47.1zm24.1 20.3c26.5 13.6 19.1 53.5-10.4 55.8-7.5.6-13-.8-19-5-6.3-4.3-10.1-9.9-12.1-17.6-1.5-5.9-1.5-7 0-13 .9-3.6 2.9-8.4 4.5-10.6 3.2-4.5 10.7-10 15.5-11.5 5.2-1.6 16.6-.6 21.5 1.9zM809.8 227.6c-8.2 1.9-15.3 5.8-21.4 11.6-6.7 6.3-10.6 12.4-13.4 20.8-1.9 5.6-2.1 7.9-1.6 16.5.3 5.5.6 11.1.8 12.4.3 2.3-1.9 3.7-26.2 17.3L721.5 321H632v18h95.5l28.9-16 28.9-16 4.4 4.1c9.6 8.8 25.3 13.3 38.6 11.1 24-4.1 40.7-23.7 40.7-47.7 0-31.3-29-54.3-59.2-46.9zm24.1 20.3c26.5 13.6 19.1 53.5-10.4 55.8-11.4.9-21.4-4.1-27.2-13.7-8.5-14.1-5.1-30.5 8.2-39.7 2.6-1.8 6.1-3.7 7.9-4.3 5.2-1.6 16.6-.6 21.5 1.9zM261.5 260.4c-6 2.8-8.7 5.6-11.4 11.6-2 4.5-2.1 5.6-2.1 172v167.5l2.4 5c2.8 6 5.6 8.7 11.6 11.4 4.5 2 5.6 2.1 170.5 2.1h166l5-2.4c6-2.8 8.7-5.6 11.4-11.6 2-4.5 2.1-5.5 2.1-172s-.1-167.5-2.1-172c-2.7-6-5.4-8.8-11.4-11.6l-5-2.4h-332l-5 2.4zM593 444v162H272V282h321v162z"/><path d="M332 444v129h62V463h76v110h62V315h-62v100h-76V315h-62v129zM50.7 371c-10.1 2.6-20.6 11.3-25 20.8-3.2 6.8-3.2 22.6 0 29.5 3.3 7.1 11.3 15 18.6 18.3 5.3 2.4 7.5 2.8 14.7 2.8 7.2 0 9.4-.4 14.7-2.8 7.3-3.3 15.4-11.3 18.4-18.1l2-4.5H233v-18h-69.5c-65.5 0-69.5-.1-69.5-1.8-.1-6.9-10.8-19.5-20-23.6-6.7-3-17-4.2-23.3-2.6zm15.9 19.9c12.9 5.9 12.9 25.3 0 31.2-16.9 7.7-32.2-11.3-21.3-26.5 2.4-3.4 8.9-6.6 13.7-6.6 1.9 0 5.3.9 7.6 1.9zM785.7 371c-10.1 2.6-20.8 11.4-24.8 20.5l-2 4.5H632v18h63.5c59.8 0 63.5.1 63.5 1.7.1 7 10.8 19.5 20.3 23.9 5.3 2.4 7.5 2.8 14.7 2.8 11 0 18.6-3.2 26-11 7.7-8.2 9.5-12.8 9.5-24.9 0-12.1-1.8-16.7-9.5-24.9-8.5-9-22.8-13.5-34.3-10.6zm15.9 19.9c12.9 5.9 12.9 25.3 0 31.2-16.9 7.7-32.2-11.3-21.3-26.5 2.4-3.4 8.9-6.6 13.7-6.6 1.9 0 5.3.9 7.6 1.9zM139.3 449.9c-7.5 2.5-13.6 8-17.2 15.3-6.4 12.7-3 28.1 8.1 36.8 5.2 4.2 12.8 7 18.8 7 9.9 0 21.5-6.8 26-15.4l2.5-4.6H233v-18l-27.2-.1h-27.3l-2.8-6c-6.4-13.5-22.1-20-36.4-15zm16.2 19.3c6.4 5 6.5 13.1.4 18.3-6.1 5.1-15.3 2-17.9-5.9-2.2-6.8 3.7-14.6 11-14.6 2.3 0 4.8.8 6.5 2.2zM736.3 452.9c-6.7 2.3-13.3 7.7-16.4 13.5l-2.4 4.6H632v18l42.3.1h42.2l2.8 6c4.7 9.8 15.8 16.9 26.7 16.9 6 0 13.6-2.8 18.8-7 15-11.8 15-35.2 0-47-8.5-6.8-18.6-8.6-28.5-5.1zm16.2 19.3c6.4 5 6.5 13.1.4 18.3-6.1 5.1-15.3 2-17.9-5.9-2.2-6.8 3.7-14.6 11-14.6 2.3 0 4.8.8 6.5 2.2zM86.7 518c-10.1 2.6-20.6 11.3-25 20.8-3.2 6.8-3.2 22.6 0 29.5 3.3 7.1 11.3 15 18.6 18.3 5.3 2.4 7.5 2.8 14.7 2.8 7.2 0 9.4-.4 14.7-2.8 9.5-4.4 20.2-16.9 20.3-23.9 0-1.6 3.1-1.7 51.5-1.7H233v-18H130.1l-2-4.5c-3-6.7-11.1-14.8-18.1-17.9-6.7-3-17-4.2-23.3-2.6zm15.9 19.9c12.9 5.9 12.9 25.3 0 31.2-16.9 7.7-32.2-11.3-21.3-26.5 2.4-3.4 8.9-6.6 13.7-6.6 1.9 0 5.3.9 7.6 1.9zM632 555v9l39.8.1h39.7l18.7 24.1 18.7 24.1-2.1 2.9c-6.7 9.4-8.8 27.8-4.7 40.1 7.5 22.5 30.5 36.7 53.2 32.9 24-4.1 40.7-23.7 40.7-47.7 0-24-16.7-43.6-40.7-47.7-8.8-1.5-18.8-.1-27.2 3.8-4.4 2-5.7 2.2-6.7 1.2-.6-.7-10-12.7-20.8-26.6L720.9 546H632v9zm168.9 58.9c26.5 13.6 19.1 53.5-10.4 55.8-7.5.6-13-.8-19-5-6.3-4.3-10.1-9.9-12.1-17.6-1.5-5.9-1.5-7 0-13 .9-3.6 2.9-8.4 4.5-10.6 3.2-4.5 10.7-10 15.5-11.5 5.2-1.6 16.6-.6 21.5 1.9zM310.8 671.7l-.3 26.7-36 22.2-35.9 22.3-5.8-5.5c-10.7-10.2-25.9-15-40-12.6-24.1 4.1-40.8 23.7-40.8 47.7 0 24 16.7 43.6 40.7 47.7 22.8 3.8 45.7-10.4 53.3-33.2 1.9-5.5 2.1-8.1 1.8-17l-.4-10.5 40.5-25.1 40.6-25.1.3-32.2.2-32.1h-18l-.2 26.7zm-97.9 74.2c26.5 13.6 19.1 53.5-10.4 55.8-7.5.6-13-.8-19-5-6.3-4.3-10.1-9.9-12.1-17.6-1.5-5.9-1.5-7 0-13 .9-3.6 2.9-8.4 4.5-10.6 3.2-4.5 10.7-10 15.5-11.5 5.2-1.6 16.6-.6 21.5 1.9zM386 709v63.9l-4.2 1.2c-10.4 2.8-21.6 11.1-27.7 20.8-9.6 15-9.6 36.2 0 51.2 10.2 16.1 30 25.2 48.1 22.1 13.8-2.4 26.4-10.6 33.7-22.1 9.6-15 9.6-36.2 0-51.2-6.1-9.7-17.3-18-27.7-20.8l-4.2-1.2V645h-18v64zm21.9 84.9c26.5 13.6 19.1 53.5-10.4 55.8-7.5.6-13-.8-19-5-6.3-4.3-10.1-9.9-12.1-17.6-1.5-5.9-1.5-7 0-13 .9-3.6 2.9-8.4 4.5-10.6 3.2-4.5 10.7-10 15.5-11.5 5.2-1.6 16.6-.6 21.5 1.9zM461 685.4v40.4l-2.4.6c-1.3.3-4.7 2.4-7.4 4.5-15 11.9-15 35.3 0 47.1 11.4 9.1 26.2 9.1 37.6 0 15-11.8 15-35.2 0-47.1-2.7-2.1-6.1-4.2-7.4-4.5l-2.4-.6V645h-18v40.4zm15.5 59.8c6.4 5 6.5 13.1.4 18.3-6.1 5.1-15.3 2-17.9-5.9-2.2-6.8 3.7-14.6 11-14.6 2.3 0 4.8.8 6.5 2.2zM536 701.3v56.3l28.3 25.4 28.4 25.4-1.4 4.5c-2 6.5-1.3 19.2 1.5 25.4 3.1 7 11.1 14.9 18.5 18.3 5.3 2.4 7.5 2.8 14.7 2.8 11 0 18.6-3.2 26-11 7.7-8.2 9.5-12.8 9.5-24.9 0-12.1-1.8-16.7-9.5-24.9-7.4-7.8-14.9-11-26-11.1-7.4 0-9.3.4-15 3.1l-6.5 3.1-25.3-22.6-25.2-22.6V645h-18v56.3zm97.6 106.6c12.9 5.9 12.9 25.3 0 31.2-5.2 2.4-10 2.4-15.2 0-12.9-5.9-12.9-25.3 0-31.2 5.2-2.4 10-2.4 15.2 0z"/></svg>