<?xml version="1.0" standalone="no"?>
<!DOCTYPE svg PUBLIC "-//W3C//DTD SVG 20010904//EN"
 "http://www.w3.org/TR/2001/REC-SVG-20010904/DTD/svg10.dtd">
<svg version="1.0" xmlns="http://www.w3.org/2000/svg"
 width="1080.000000pt" height="1080.000000pt" viewBox="0 0 1080.000000 1080.000000"
 preserveAspectRatio="xMidYMid meet">
<metadata>
Created by potrace 1.14, written by Peter Selinger 2001-2017
</metadata>
<g transform="translate(0.000000,1080.000000) scale(0.100000,-0.100000)"
fill="#000000" stroke="none">
<path d="M7507 9193 c-4 -3 -7 -66 -7 -140 l0 -133 -135 0 -135 0 0 -145 0
-145 -140 0 -140 0 0 -275 0 -275 -145 0 -145 0 0 -139 0 -139 -275 -7 -275
-7 0 -134 0 -133 -142 -3 -143 -3 -3 -137 -3 -138 -279 0 -280 0 0 -139 0
-139 -275 -7 -275 -7 0 -134 0 -133 -142 -3 -143 -3 -3 -142 -3 -143 -139 0
-140 0 0 -140 0 -140 -140 0 -140 0 0 -135 0 -134 -137 -3 -138 -3 -3 -142 -3
-143 -139 0 -140 0 0 -140 0 -140 -140 0 -140 0 0 -136 c0 -96 -3 -133 -11
-128 -6 3 -195 1 -420 -7 l-409 -13 0 -138 0 -138 -845 0 -845 0 0 -145 0
-145 145 0 145 0 0 -140 0 -140 275 0 275 0 0 -140 0 -140 985 0 985 0 0 -140
0 -140 140 0 140 0 0 -145 0 -145 140 0 140 0 0 -343 c0 -189 3 -439 7 -555
l6 -212 274 0 273 0 0 -140 0 -140 850 0 850 0 0 280 0 279 -142 3 -143 3 -3
143 -3 142 -419 0 -420 0 0 270 0 269 138 3 137 3 3 143 3 142 279 0 280 0 0
140 0 140 145 0 145 0 0 140 0 140 134 0 133 0 8 269 c4 149 4 274 1 280 -5 7
41 11 136 13 l143 3 3 138 3 137 72 0 c40 0 163 3 275 7 l202 6 0 -146 0 -147
135 0 135 0 2 -277 3 -278 148 -3 147 -3 0 140 0 140 138 3 137 3 3 283 2 282
-140 0 -140 0 0 140 0 140 -140 0 -139 0 -3 138 -3 137 -140 5 -140 6 135 2
135 2 -3 135 -3 135 -124 0 -124 0 -4 -132 c-1 -73 -4 115 -5 417 l-2 550 117
-3 c176 -5 163 -17 163 143 l0 135 140 0 140 0 0 -135 0 -135 135 0 135 0 0
-139 0 -139 273 -6 c149 -4 466 -6 702 -4 l430 3 3 143 3 142 139 0 140 0 -2
563 -3 562 -137 3 -138 3 0 212 c0 117 -3 303 -7 415 l-6 202 -133 0 -133 0
-3 143 -3 142 -135 2 c-74 1 -199 2 -277 3 l-143 0 0 140 0 140 -563 0 c-310
0 -567 -3 -570 -7z m833 -1258 l0 -135 -130 0 -130 0 0 135 0 135 130 0 130 0
0 -135z"/>
</g>
</svg>
