<?xml version="1.0" standalone="no"?>
<!DOCTYPE svg PUBLIC "-//W3C//DTD SVG 20010904//EN"
 "http://www.w3.org/TR/2001/REC-SVG-20010904/DTD/svg10.dtd">
<svg version="1.0" xmlns="http://www.w3.org/2000/svg"
 width="870.000000pt" height="870.000000pt" viewBox="0 0 870.000000 870.000000"
 preserveAspectRatio="xMidYMid meet">
<metadata>
Created by potrace 1.14, written by Peter Selinger 2001-2017
</metadata>
<g transform="translate(0.000000,870.000000) scale(0.100000,-0.100000)"
fill="#000000" stroke="none">
<path d="M3358 8674 c-118 -28 -231 -109 -297 -213 -96 -150 -96 -362 0 -512
102 -161 301 -252 481 -221 39 7 90 21 114 31 l43 19 80 -98 81 -99 0 -655 0
-656 90 0 90 0 0 694 0 694 -98 119 -99 119 30 43 c76 110 100 284 56 414 -80
240 -329 380 -571 321z m241 -203 c178 -92 221 -330 84 -466 -60 -60 -114 -87
-188 -92 -75 -6 -130 8 -190 50 -63 43 -101 99 -121 176 -15 59 -15 70 0 130
9 36 29 84 45 106 32 45 107 100 155 115 52 16 166 6 215 -19z"/>
<path d="M4603 8191 c-75 -25 -136 -80 -172 -153 -64 -127 -30 -281 81 -369
27 -21 61 -42 74 -45 l24 -6 0 -674 0 -674 90 0 90 0 0 674 0 674 24 6 c13 3
47 24 74 45 150 119 150 353 0 471 -85 68 -186 86 -285 51z m162 -193 c64 -50
65 -131 4 -183 -61 -51 -153 -20 -179 59 -22 68 37 146 110 146 23 0 48 -8 65
-22z"/>
<path d="M6297 7750 c-102 -26 -208 -114 -249 -208 -24 -53 -35 -177 -21 -232
l9 -35 -335 -196 -336 -195 -3 -307 -2 -307 90 0 90 0 2 251 3 251 299 174
c269 158 300 173 315 160 9 -8 43 -28 76 -43 51 -23 73 -28 145 -27 110 0 186
32 260 110 77 82 95 128 95 249 0 121 -18 167 -95 249 -85 90 -228 135 -343
106z m159 -199 c129 -59 129 -253 0 -312 -77 -35 -166 -15 -200 44 -56 97 -58
103 -46 149 7 23 21 56 33 72 24 34 89 66 137 66 19 0 53 -9 76 -19z"/>
<path d="M3103 7531 c-75 -25 -136 -80 -172 -153 -64 -127 -30 -281 81 -369
27 -21 61 -42 74 -45 l24 -6 0 -344 0 -344 90 0 90 0 0 344 0 344 24 6 c13 3
47 24 74 45 150 119 150 353 0 471 -85 68 -186 86 -285 51z m162 -193 c64 -50
65 -131 4 -183 -61 -51 -153 -20 -179 59 -22 68 37 146 110 146 23 0 48 -8 65
-22z"/>
<path d="M388 6814 c-161 -39 -294 -161 -347 -321 -43 -127 -22 -291 50 -404
99 -156 300 -251 470 -223 l62 11 49 -104 c27 -58 86 -184 132 -281 l82 -177
722 -3 722 -2 0 90 0 90 -660 2 -660 3 -109 232 -109 231 40 39 c100 96 147
207 148 346 1 315 -289 545 -592 471z m241 -203 c265 -136 191 -535 -104 -558
-75 -6 -130 8 -190 50 -63 43 -101 99 -121 176 -15 59 -15 70 0 130 9 36 29
84 45 106 32 45 107 100 155 115 52 16 166 6 215 -19z"/>
<path d="M8098 6424 c-82 -19 -153 -58 -214 -116 -67 -63 -106 -124 -134 -208
-19 -56 -21 -79 -16 -165 3 -55 6 -111 8 -124 3 -23 -19 -37 -262 -173 l-265
-148 -447 0 -448 0 0 -90 0 -90 478 0 477 0 289 160 289 160 44 -41 c96 -88
253 -133 386 -111 240 41 407 237 407 477 0 313 -290 543 -592 469z m241 -203
c265 -136 191 -535 -104 -558 -114 -9 -214 41 -272 137 -85 141 -51 305 82
397 26 18 61 37 79 43 52 16 166 6 215 -19z"/>
<path d="M2615 6096 c-60 -28 -87 -56 -114 -116 -20 -45 -21 -56 -21 -1720 l0
-1675 24 -50 c28 -60 56 -87 116 -114 45 -20 56 -21 1705 -21 l1660 0 50 24
c60 28 87 56 114 116 20 45 21 55 21 1720 0 1665 -1 1675 -21 1720 -27 60 -54
88 -114 116 l-50 24 -1660 0 -1660 0 -50 -24z m3315 -1836 l0 -1620 -1605 0
-1605 0 0 1620 0 1620 1605 0 1605 0 0 -1620z"/>
<path d="M3320 4260 l0 -1290 310 0 310 0 0 550 0 550 380 0 380 0 0 -550 0
-550 310 0 310 0 0 1290 0 1290 -310 0 -310 0 0 -500 0 -500 -380 0 -380 0 0
500 0 500 -310 0 -310 0 0 -1290z"/>
<path d="M507 4990 c-101 -26 -206 -113 -250 -208 -32 -68 -32 -226 0 -295 33
-71 113 -150 186 -183 53 -24 75 -28 147 -28 72 0 94 4 147 28 73 33 154 113
184 181 l20 45 694 0 695 0 0 90 0 90 -695 0 c-655 0 -695 1 -695 18 -1 69
-108 195 -200 236 -67 30 -170 42 -233 26z m159 -199 c129 -59 129 -253 0
-312 -169 -77 -322 113 -213 265 24 34 89 66 137 66 19 0 53 -9 76 -19z"/>
<path d="M7857 4990 c-101 -26 -208 -114 -248 -205 l-20 -45 -634 0 -635 0 0
-90 0 -90 635 0 c598 0 635 -1 635 -17 1 -70 108 -195 203 -239 53 -24 75 -28
147 -28 110 0 186 32 260 110 77 82 95 128 95 249 0 121 -18 167 -95 249 -85
90 -228 135 -343 106z m159 -199 c129 -59 129 -253 0 -312 -169 -77 -322 113
-213 265 24 34 89 66 137 66 19 0 53 -9 76 -19z"/>
<path d="M1393 4201 c-75 -25 -136 -80 -172 -153 -64 -127 -30 -281 81 -368
52 -42 128 -70 188 -70 99 0 215 68 260 154 l25 46 277 0 278 0 0 90 0 90
-272 1 -273 0 -28 60 c-64 135 -221 200 -364 150z m162 -193 c64 -50 65 -131
4 -183 -61 -51 -153 -20 -179 59 -22 68 37 146 110 146 23 0 48 -8 65 -22z"/>
<path d="M7363 4171 c-67 -23 -133 -77 -164 -135 l-24 -46 -427 0 -428 0 0
-90 0 -90 423 -1 422 0 28 -60 c47 -98 158 -169 267 -169 60 0 136 28 188 70
150 118 150 352 0 470 -85 68 -186 86 -285 51z m162 -193 c64 -50 65 -131 4
-183 -61 -51 -153 -20 -179 59 -22 68 37 146 110 146 23 0 48 -8 65 -22z"/>
<path d="M867 3520 c-101 -26 -206 -113 -250 -208 -32 -68 -32 -226 0 -295 33
-71 113 -150 186 -183 53 -24 75 -28 147 -28 72 0 94 4 147 28 95 44 202 169
203 239 0 16 31 17 515 17 l515 0 0 90 0 90 -515 0 -514 0 -20 45 c-30 67
-111 148 -181 179 -67 30 -170 42 -233 26z m159 -199 c129 -59 129 -253 0
-312 -169 -77 -322 113 -213 265 24 34 89 66 137 66 19 0 53 -9 76 -19z"/>
<path d="M6320 3150 l0 -90 398 -1 397 0 187 -241 187 -241 -21 -29 c-67 -94
-88 -278 -47 -401 75 -225 305 -367 532 -329 240 41 407 237 407 477 0 240
-167 436 -407 477 -88 15 -188 1 -272 -38 -44 -20 -57 -22 -67 -12 -6 7 -100
127 -208 266 l-197 252 -445 0 -444 0 0 -90z m1689 -589 c265 -136 191 -535
-104 -558 -75 -6 -130 8 -190 50 -63 43 -101 99 -121 176 -15 59 -15 70 0 130
9 36 29 84 45 106 32 45 107 100 155 115 52 16 166 6 215 -19z"/>
<path d="M3108 1983 l-3 -267 -360 -222 -359 -223 -58 55 c-107 102 -259 150
-400 126 -241 -41 -408 -237 -408 -477 0 -240 167 -436 407 -477 228 -38 457
104 533 332 19 55 21 81 18 170 l-4 105 405 251 406 251 3 322 2 321 -90 0
-90 0 -2 -267z m-979 -742 c265 -136 191 -535 -104 -558 -75 -6 -130 8 -190
50 -63 43 -101 99 -121 176 -15 59 -15 70 0 130 9 36 29 84 45 106 32 45 107
100 155 115 52 16 166 6 215 -19z"/>
<path d="M3860 1610 l0 -639 -42 -12 c-104 -28 -216 -111 -277 -208 -96 -150
-96 -362 0 -512 102 -161 300 -252 481 -221 138 24 264 106 337 221 96 150 96
362 0 512 -61 97 -173 180 -277 208 l-42 12 0 639 0 640 -90 0 -90 0 0 -640z
m219 -849 c265 -136 191 -535 -104 -558 -75 -6 -130 8 -190 50 -63 43 -101 99
-121 176 -15 59 -15 70 0 130 9 36 29 84 45 106 32 45 107 100 155 115 52 16
166 6 215 -19z"/>
<path d="M4610 1846 l0 -404 -24 -6 c-13 -3 -47 -24 -74 -45 -150 -119 -150
-353 0 -471 114 -91 262 -91 376 0 150 118 150 352 0 471 -27 21 -61 42 -74
45 l-24 6 0 404 0 404 -90 0 -90 0 0 -404z m155 -598 c64 -50 65 -131 4 -183
-61 -51 -153 -20 -179 59 -22 68 37 146 110 146 23 0 48 -8 65 -22z"/>
<path d="M5360 1687 l0 -563 283 -254 284 -254 -14 -45 c-20 -65 -13 -192 15
-254 31 -70 111 -149 185 -183 53 -24 75 -28 147 -28 110 0 186 32 260 110 77
82 95 128 95 249 0 121 -18 167 -95 249 -74 78 -149 110 -260 111 -74 0 -93
-4 -150 -31 l-65 -31 -253 226 -252 226 0 517 0 518 -90 0 -90 0 0 -563z m976
-1066 c129 -59 129 -253 0 -312 -52 -24 -100 -24 -152 0 -129 59 -129 253 0
312 52 24 100 24 152 0z"/>
</g>
</svg>
