<svg xmlns="http://www.w3.org/2000/svg" viewBox="0 0 400 400">
  <g fill-rule="evenodd">
    <path fill="#4fa668" d="m273.513 73.5-.113 4.7-4.454.113-4.453.112-.275 8.888c-.354 11.433.238 10.238-5.141 10.374l-4.477.113-.113 4.515c-.136 5.426-.136 5.425-6.005 5.217-4.361-.155-4.033-.584-4.183 5.468l-.099 4-4 .099c-6.237.155-5.755-.255-5.887 5.005l-.113 4.496-9.4.441c-5.17.243-9.4.468-9.4.5 0 .032.062 1.749.137 3.816.214 5.852.991 5.443-10.338 5.443h-9.574l-.112 4.7-.113 4.7-4.394.114c-5.349.14-5.182-.02-5.052 4.808.137 5.079.814 4.736-10.054 5.084l-9.1.292v4.118c0 5.744.335 5.384-5 5.384-5.319 0-5-.328-5 5.153 0 4.931.092 4.847-5.28 4.847h-4.32v4.592c0 5.381.487 4.953-5.8 5.109l-4 .099-.114 4.585c-.136 5.475.147 5.201-5.386 5.209l-4.3.006v9.175l-4.7.112-4.7.113-.114 4.394c-.146 5.6.662 5.172-10.205 5.406l-9.281.2-.2 4.6-.2 4.6-11.2.246c-6.16.135-12.679.27-14.486.3l-3.287.054-.113 4.3-.114 4.3-14.5.105-14.5.105v4.595c0 2.527.045 4.632.1 4.677.055.045 4.42.18 9.7.3l9.6.218.113 4.7.112 4.7 27.088.001c14.898.001 30.192.119 33.987.263l6.9.262v9.049l4.7.112 4.7.113.112 4.9.113 4.9h4.311c6.226 0 5.642-1.54 5.762 15.2l.102 14.2 4.496.113c5.247.132 4.847-.323 5.004 5.687l.1 3.8 4.8.2 4.8.2.113 4.5.113 4.5h23.563c12.96 0 23.65-.14 23.756-.31.105-.171.251-4.266.323-9.1l.132-8.79-4.8-.296c-2.64-.163-6.909-.403-9.487-.533l-4.687-.237-.113-4.467-.113-4.467-5-.2-5-.2-.107-9.35c-.13-11.305-.568-10.45 5.356-10.45h4.551v-4.757c0-5.628-.413-5.243 5.62-5.243h4.354l.113-4.5.113-4.5 9.488-.35 9.487-.35.113-4.65.112-4.65 4.6-.2 4.6-.2.2-9.4.2-9.4 4.7-.113 4.7-.112v-4.542c0-3.251.17-4.867.598-5.687.406-.78.598-2.359.601-4.946l.003-3.8 4.699-.12c2.585-.066 6.769-.156 9.299-.2l4.6-.08.2 4.6.2 4.6 4.469.2c2.457.11 4.578.311 4.713.447.135.136.358 6.571.496 14.3l.251 14.053h8.981l.297-9.489c.163-5.218.138-13.723-.055-18.9L282.6 205l-4.8-.2-4.8-.2-.2-4.6-.2-4.6-4.6-.2-4.6-.2v-39.2l4.6-.2 4.6-.2.2-4.6.2-4.6h20l.113 4.7.112 4.7h4.58c5.366 0 4.94-.486 5.096 5.8l.099 4h28.4l.113-4.462c.137-5.445-.031-5.279 5.511-5.424l4.376-.114.114-4.385c.137-5.233-.103-5.001 5.186-5.009l4.1-.006v-28.4h-4.32c-5.701 0-5.28.819-5.28-10.28V98h-4.32c-5.422 0-5.28.142-5.28-5.28 0-3.169-.133-4.33-.5-4.358-.275-.02-2.15-.006-4.167.032-5.373.101-5.333.142-5.333-5.408V78.4h-4.386c-5.318 0-5.214.111-5.214-5.574V68.8h-38.375l-.112 4.7M302.6 112v5l-4.768.113c-5.678.135-5.42.36-5.42-4.713-.001-6.027-.373-5.644 5.338-5.512l4.85.112v5M30.48 224.88c-.308.308-.48 1.883-.48 4.392 0 4.641-.298 4.423 5.8 4.245l4-.117.115-3.941c.075-2.562-.047-4.137-.349-4.5-.607-.732-8.366-.799-9.086-.079"/>
    <path fill="#b1d8be" d="M273.462 68.3c-.169.273 14.549.267 31.938-.011 3.74-.06-1.874-.15-12.476-.199-10.602-.05-19.36.045-19.462.21m39.116 5.1.022 4.4 4.501.021 4.5.02-4.387-.133-4.387-.134-.136-4.287-.136-4.287.023 4.4m9.489 9.276c-.037 2.462.068 4.561.233 4.664.165.102.252-1.282.192-3.077-.185-5.607-.355-6.242-.425-1.587M262.8 92.6v4.2h-4.176c-2.297 0-4.261.135-4.363.3-.103.165 1.866.244 4.376.176l4.563-.124v-4.376c0-2.407-.09-4.376-.2-4.376-.11 0-.2 1.89-.2 4.2m69.38.4.02 4.4 4.663.2c2.565.11 4.579.065 4.476-.1-.102-.165-2.15-.3-4.55-.3h-4.363l-.133-4.3-.132-4.3.019 4.4m-82.98 13.8-4.6.24 4.476.08c2.643.047 4.578-.084 4.724-.32.136-.22.192-.364.124-.32-.068.044-2.194.188-4.724.32m43.751 5.2c0 2.53.065 3.565.145 2.3.079-1.265.079-3.335 0-4.6-.08-1.265-.145-.23-.145 2.3m-49.201.2c.001 2.42.066 3.358.146 2.085.08-1.273.079-3.253-.002-4.4-.08-1.147-.145-.105-.144 2.315M230 117.18l-4.6.22-.113 4.445-.112 4.446 4.112-.046 4.113-.045.114-4.062c.139-4.972.035-4.874 5.309-5.039l4.177-.13-4.2-.005c-2.31-.002-6.27.095-8.8.216m65.7-.086c1.045.082 2.755.082 3.8 0s.19-.15-1.9-.15-2.945.068-1.9.15m47.9-.035c3.312.294 7.512.317 7.34.041-.103-.165-2.112-.27-4.464-.233-2.352.037-3.646.123-2.876.192M351.38 132c0 7.81.054 11.005.119 7.1.066-3.905.066-10.295 0-14.2-.065-3.905-.119-.71-.119 7.1m-133.464-5.303c1.383.078 3.543.077 4.8-.002 1.256-.079.124-.143-2.516-.142-2.64 0-3.668.065-2.284.144m-22.455 9.603c-.102.165 2.632.254 6.076.197 11.561-.19 12.73-.334 3.387-.416-5.102-.044-9.361.054-9.463.219m-18.86 10.6c-.316.905-.408 8.63-.101 8.439.165-.102.3-1.976.3-4.163V147.2h3.976c2.22 0 4.086-.177 4.224-.4.159-.257-1.267-.4-3.989-.4-3.029 0-4.286.142-4.41.5M288 146.771l4.2.229.115 4.177c.147 5.363.023 5.241 5.234 5.144l4.251-.079-4.4-.221-4.4-.221-.2-4.6-.2-4.6-4.4-.029-4.4-.029 4.2.229m62.798 4.111c-.109 2.574-.057 4.539.116 4.365.173-.173.262-2.28.198-4.681l-.116-4.366-.198 4.682M273.35 151c.001 2.42.066 3.358.146 2.085.08-1.273.079-3.253-.002-4.4-.08-1.147-.145-.105-.144 2.315m-89.022.601c-.07 1.98.007 3.6.172 3.6.165-.001.3-1.621.3-3.601 0-4.652-.306-4.652-.472.001m-15.428 4.295c1.265.079 3.335.079 4.6 0 1.265-.08.23-.145-2.3-.145s-3.565.065-2.3.145m94.879.614c-.107.28-.146 4.375-.086 9.1l.109 8.59.199-9.1c.195-8.911.176-9.628-.222-8.59m2.934-.215c1.163.081 2.963.081 4-.002 1.038-.082.087-.148-2.113-.147-2.2.001-3.049.068-1.887.149M166.15 160.6c.001 2.42.066 3.358.146 2.085.08-1.273.079-3.253-.002-4.4-.08-1.147-.145-.105-.144 2.315m136.003.4c0 2.64.065 3.668.144 2.284.078-1.383.077-3.543-.002-4.8-.079-1.256-.143-.124-.142 2.516m30.171-.05c-.096 3.516-.01 4.506.376 4.357.355-.137.5-1.391.5-4.335v-4.143l3.9-.131 3.9-.131-4.276-.083-4.276-.084-.124 4.55m-22.424 4.949c4.015.066 10.585.066 14.6 0 4.015-.065.73-.118-7.3-.118s-11.315.053-7.3.118M147.06 175.5c-.102.165 1.102.251 2.677.191 5.145-.197 5.739-.355 1.587-.424-2.242-.037-4.161.068-4.264.233m-5.06 9.3-4.6.24 4.476.08c2.643.047 4.578-.084 4.724-.32.136-.22.192-.364.124-.32-.068.044-2.194.188-4.724.32m121.672 4.476c-.04 2.792.063 5.161.228 5.264.165.102.252-1.372.193-3.277-.198-6.391-.348-7.101-.421-1.987m-131.466 5.423c-2.417.072-4.524.258-4.682.415-.158.158 1.729.23 4.194.161 2.465-.068 4.653-.293 4.862-.5.209-.206.299-.337.2-.29-.099.047-2.158.143-4.574.214M273.35 199.8c.001 2.42.066 3.358.146 2.085.08-1.273.079-3.253-.002-4.4-.08-1.147-.145-.105-.144 2.315m-153.235 4.896c1.273.08 3.253.079 4.4-.002 1.147-.08.105-.145-2.315-.144-2.42.001-3.358.066-2.085.146m155.985 0c1.265.079 3.335.079 4.6 0 1.265-.08.23-.145-2.3-.145s-3.565.065-2.3.145M117.351 209.6c0 2.53.065 3.565.145 2.3.079-1.265.079-3.335 0-4.6-.08-1.265-.145-.23-.145 2.3m137.449-.249c0 4.652.078 4.583-5.424 4.771-2.407.082-.298.067 4.686-.032 10.742-.215 9.938-.675 9.938 5.684V224h4.2c2.533 0 4.2-.159 4.2-.4 0-.24-1.6-.4-4-.4h-4v-4.138c0-3.63-.098-4.227-.8-4.862-.697-.631-.8-1.232-.8-4.662V205.6h-8v3.751m28.484.3c-.072 3.637.017 4.33.616 4.8.616.483.642.474.215-.074-.287-.368-.539-2.332-.616-4.8l-.13-4.177-.085 4.251m-185.208 4.858c-.465.56-.851 9.63-.39 9.167.157-.158.337-2.265.4-4.682l.114-4.394 5.2-.218 5.2-.219-5.051-.081c-3.684-.06-5.165.056-5.473.427M292.2 224c0 5.28.135 9.6.3 9.6.165 0 .3-4.32.3-9.6 0-5.28-.135-9.6-.3-9.6-.165 0-.3 4.32-.3 9.6m-48.049-4.8c0 2.53.065 3.565.145 2.3.079-1.265.079-3.335 0-4.6-.08-1.265-.145-.23-.145 2.3M29.86 224.3c-.102.165 1.372.252 3.277.193 6.391-.198 7.101-.348 1.987-.421-2.792-.04-5.161.063-5.264.228m43.663-.001c2.708.069 7.028.069 9.6 0 2.572-.07.357-.127-4.923-.126-5.28 0-7.385.057-4.677.126M234.553 229c0 2.64.065 3.668.144 2.284.078-1.383.077-3.543-.002-4.8-.079-1.256-.143-.124-.142 2.516m-201.44 4.895c1.163.081 2.963.081 4-.002 1.038-.082.087-.148-2.113-.147-2.2.001-3.049.068-1.887.149m25.685 14.623.198 4.882.116-4.566c.063-2.512-.026-4.708-.198-4.882-.173-.173-.225 1.882-.116 4.566m166.152-.318c.001 2.42.066 3.358.146 2.085.08-1.273.079-3.253-.002-4.4-.08-1.147-.145-.105-.144 2.315m-148.62 5.3c9.311.06 24.431.06 33.6 0 9.168-.06 1.55-.109-16.93-.109s-25.982.049-16.67.109m138.294.313c-.561.423-1.87.587-4.7.587H206v3.98c0 3.042-.135 4.056-.574 4.3-.315.176 1.44.259 3.9.183 5.634-.171 5.537-.086 5.442-4.757-.093-4.642-.31-4.451 5.238-4.607l4.594-.128-4.6-.073c-3.513-.055-4.783.066-5.376.515m-87.106 9.062c.155.152 2.299.332 4.764.4 2.465.069 4.355.001 4.2-.15-.155-.152-2.299-.332-4.764-.4-2.465-.069-4.355-.001-4.2.15m67.855.851c-.111.289-.149 2.494-.085 4.9l.117 4.374.197-4.901c.196-4.841.166-5.403-.229-4.373m-55.658 9.37c1.273.08 3.253.079 4.4-.002 1.147-.08.105-.145-2.315-.144-2.42.001-3.358.066-2.085.146m48.385 0c1.265.079 3.335.079 4.6 0 1.265-.08.23-.145-2.3-.145s-3.565.065-2.3.145m-2.328 9.504c0 5.06.057 7.075.127 4.477.07-2.597.069-6.737-.001-9.2-.07-2.462-.127-.337-.126 4.723m11.728 9.696c1.375.078 3.625.078 5 0s.25-.142-2.5-.142-3.875.064-2.5.142m8.1.504c0 .241 1.679.4 4.237.4h4.238l-.138 3.972c-.134 3.896-.116 3.99.963 4.993 1.062.987 1.1 1.163 1.099 5.129l-.001 4.106 4.001-.127 4.001-.126v9.627l-4.5.127-4.5.128 4.676.085c5.753.106 5.279 1.043 4.928-9.741l-.292-8.948-4.656-.113L215 302.2l-.099-4c-.156-6.269.241-5.8-4.909-5.8-2.661 0-4.392.158-4.392.4m2.112 8.295c1.052.082 2.672.081 3.6-.003.928-.084.068-.151-1.912-.15-1.98.001-2.74.07-1.688.153m-60.494 1.485c.21.209.382 2.144.382 4.3v3.92h3.724c2.654 0 3.946.169 4.5.587.427.323.956.588 1.176.588.22 0 .085-.183-.3-.407-.599-.349-.7-1.037-.7-4.764v-4.356l-4.582-.124c-2.894-.078-4.441.016-4.2.256m18.932 14.02c.001 2.42.066 3.358.146 2.085.08-1.273.079-3.253-.002-4.4-.08-1.147-.145-.105-.144 2.315m12.579 4.9c6.67.061 17.47.061 24 0 6.529-.062 1.071-.112-12.129-.112s-18.542.05-11.871.112"/>
    <path fill="#9cccac" d="M263.773 78.527c-.112.29-.15 2.405-.085 4.7l.117 4.173.198-4.701c.195-4.647.164-5.2-.23-4.172M263.35 92.2c.001 2.42.066 3.358.146 2.085.08-1.273.079-3.253-.002-4.4-.08-1.147-.145-.105-.144 2.315m-9.09 5.3c-.102.165 1.192.251 2.877.192 5.374-.191 5.99-.356 1.587-.425-2.352-.037-4.361.068-4.464.233m-20.734 24.701c-.069 2.31.009 4.2.174 4.2.165-.001.3-1.891.3-4.201 0-5.43-.312-5.429-.474.001M214.95 131.4c.001 2.42.066 3.358.146 2.085.08-1.273.079-3.253-.002-4.4-.08-1.147-.145-.105-.144 2.315m-19.599 9.8c0 2.53.065 3.565.145 2.3.079-1.265.079-3.335 0-4.6-.08-1.265-.145-.23-.145 2.3m-6.836 5.096c1.273.08 3.253.079 4.4-.002 1.147-.08.105-.145-2.315-.144-2.42.001-3.358.066-2.085.146m84.945.004c-.102.165 1.372.252 3.277.193 6.391-.198 7.101-.348 1.987-.421-2.792-.04-5.161.063-5.264.228m-88.46.5c-.138.223-1.996.4-4.198.4h-3.951l-.125 4.1-.126 4.1 3.8-.2 3.8-.2.185-3.6.185-3.6.225 3.8.225 3.8.19-4.501c.105-2.475.156-4.5.114-4.5-.042.001-.188.181-.324.401m165.484 4.086-.084 4.285-3.9.131-3.9.131 3.913.083c4.621.099 4.363.404 4.186-4.944l-.132-3.972-.083 4.286m-15.569 5.41c1.273.08 3.253.079 4.4-.002 1.147-.08.105-.145-2.315-.144-2.42.001-3.358.066-2.085.146m-2.764 4.504c0 2.53.065 3.565.145 2.3.079-1.265.079-3.335 0-4.6-.08-1.265-.145-.23-.145 2.3m-172.836 5.096c1.273.08 3.253.079 4.4-.002 1.147-.08.105-.145-2.315-.144-2.42.001-3.358.066-2.085.146M136.95 189.8c.001 2.42.066 3.358.146 2.085.08-1.273.079-3.253-.002-4.4-.08-1.147-.145-.105-.144 2.315m129.35 5.295c1.155.081 3.045.081 4.2 0 1.155-.081.21-.147-2.1-.147s-3.255.066-2.1.147M127.348 199.6c0 2.31.066 3.255.147 2.1.081-1.155.081-3.045 0-4.2-.081-1.155-.147-.21-.147 2.1m127.152 5.458c-.355.148-.5 1.425-.5 4.399 0 2.692.143 4.102.4 3.943.221-.137.4-1.937.4-4.024V205.6h7.972l.137 4.1.137 4.1-.023-4.4L263 205l-4-.075c-2.2-.042-4.225.018-4.5.133m-144 9.238c1.265.079 3.335.079 4.6 0 1.265-.08.23-.145-2.3-.145s-3.565.065-2.3.145m153.825 4.604.125 4.3h3.942c2.775 0 4.003.148 4.15.5.116.275.176-1.57.134-4.1l-.076-4.6-4.2-.2-4.2-.2.125 4.3m23.874-4.208 3.801.137V233.2h-4.176c-2.297 0-4.261.135-4.363.3-.103.165 1.821.21 4.276.1l4.463-.2v-18.8l-3.901-.023-3.901-.023 3.801.138M239.4 224l-4.4.242 4.276.079c2.509.046 4.379-.086 4.524-.321.136-.22.192-.364.124-.321-.068.044-2.104.188-4.524.321m-192.1.699c3.905.066 10.295.066 14.2 0 3.905-.065.71-.119-7.1-.119s-11.005.054-7.1.119M29.75 229c.001 2.42.066 3.358.146 2.085.08-1.273.079-3.253-.002-4.4-.08-1.147-.145-.105-.144 2.315m243.603 9.2c0 2.64.065 3.668.144 2.284.078-1.383.077-3.543-.002-4.8-.079-1.256-.143-.124-.142 2.516m3.347 5.293c.935.084 2.465.084 3.4 0s.17-.153-1.7-.153c-1.87 0-2.635.069-1.7.153M214.4 253.6c-.33.213-2.434.391-4.675.394l-4.075.006-.125 4.363c-.069 2.4.01 4.279.175 4.176.165-.102.3-1.976.3-4.163V254.4h3.924c2.83 0 4.139-.164 4.7-.587.869-.658.705-.813-.224-.213m-87.05 4.6c.001 2.42.066 3.358.146 2.085.08-1.273.079-3.253-.002-4.4-.08-1.147-.145-.105-.144 2.315m70.75 4.896c1.265.079 3.335.079 4.6 0 1.265-.08.23-.145-2.3-.145s-3.565.065-2.3.145M136.951 268c0 2.53.065 3.565.145 2.3.079-1.265.079-3.335 0-4.6-.08-1.265-.145-.23-.145 2.3m51.549 24.296c1.265.079 3.335.079 4.6 0 1.265-.08.23-.145-2.3-.145s-3.565.065-2.3.145m16.62.584c.311.311.48 1.929.48 4.6v4.12l4.5-.032c2.475-.017 4.32-.107 4.1-.199-.242-.102-.346-1.747-.263-4.169l.138-4h-4.238c-2.558 0-4.237-.159-4.237-.4 0-.22-.216-.4-.48-.4-.373 0-.373.107 0 .48m6.192 8.212c-.928.084-2.548.085-3.6.003-1.052-.083-.292-.152 1.688-.153 1.98-.001 2.84.066 1.912.15M156.15 307c.001 2.42.066 3.358.146 2.085.08-1.273.079-3.253-.002-4.4-.08-1.147-.145-.105-.144 2.315m59.231 4.56c.272 8.244.246 8.788-.446 9.231-.709.453-.709.461-.002.239.403-.126 2.608-.23 4.9-.23H224v-9.653l-4.001.126-4.001.127.001-4.3c.001-2.944-.142-4.3-.454-4.3-.334 0-.377 2.316-.164 8.76m-56.066.336c1.273.08 3.253.079 4.4-.002 1.147-.08.105-.145-2.315-.144-2.42.001-3.358.066-2.085.146"/>
    <path fill="#cce4d4" d="m272.792 73-.192 4.4-4.4.221-4.4.221 4.251.079c5.323.099 5.215.21 5.055-5.179l-.123-4.142-.191 4.4m49.094 5.024c.294.378.53 2.346.6 5l.114 4.376 4.501.021 4.5.02-4.4-.134-4.401-.133v-4.338c0-3.656-.11-4.424-.7-4.887-.616-.483-.642-.474-.214.075M263.351 82.8c0 2.53.065 3.565.145 2.3.079-1.265.079-3.335 0-4.6-.08-1.265-.145-.23-.145 2.3m-4.626 5.498-4.276.129-.124 4.286L254.2 97l4.275-.125 4.276-.124.124-4.376c.069-2.407.125-4.338.125-4.291 0 .047-1.924.144-4.275.214M333.6 97.06c3.282.293 7.912.317 7.74.04-.103-.165-2.202-.27-4.664-.233-2.462.037-3.846.124-3.076.193m-79.85 5.14c.001 2.42.066 3.358.146 2.085.08-1.273.079-3.253-.002-4.4-.08-1.147-.145-.105-.144 2.315m87.931 4.876c-.044 5.102.054 9.361.219 9.463.165.102.254-2.632.197-6.076-.19-11.561-.334-12.73-.416-3.387m-46.381.42c1.265.079 3.335.079 4.6 0 1.265-.08.23-.145-2.3-.145s-3.565.065-2.3.145m6.698 4.786c-.109 2.465-.056 4.339.117 4.165.173-.174.262-2.191.197-4.482l-.116-4.165-.198 4.482m-64.107 4.407c.71.088 1.97.09 2.8.003.83-.087.249-.159-1.291-.161-1.54-.002-2.219.069-1.509.158m-12.918 1.038c-.112.29-.15 2.405-.085 4.7l.117 4.173.198-4.701c.195-4.647.164-5.2-.23-4.172m-10.575 13.955c-.109 2.355-.056 4.139.117 3.964.174-.174.263-2.101.198-4.281l-.118-3.965-.197 4.282m-37.871 14.631c-.305.194-.519 1.894-.6 4.776-.07 2.461.001 4.345.158 4.188.157-.158.337-2.175.4-4.482l.115-4.195 4.6-.22 4.6-.22-4.4-.074c-2.42-.041-4.613.062-4.873.227m106.796.572c.262.166 2.322.306 4.577.309l4.1.006v4.151c0 3.485.112 4.236.7 4.681.596.45.625.446.2-.031-.332-.372-.5-1.953-.5-4.694 0-2.952-.143-4.179-.5-4.295-.948-.31-9.053-.43-8.577-.127M346.6 155.6l-4.4.242 4.276.079c2.509.046 4.379-.086 4.524-.321.136-.22.192-.364.124-.321-.068.044-2.104.188-4.524.321m-44.849 5.2c0 2.53.065 3.565.145 2.3.079-1.265.079-3.335 0-4.6-.08-1.265-.145-.23-.145 2.3m35.349-4.086-3.9.115v4.124c0 3.761-.072 4.157-.812 4.486-.522.232.874.312 3.9.225 5.64-.162 4.962.5 4.826-4.711L341 156.6l-3.9.114M165.75 161c.001 2.42.066 3.358.146 2.085.08-1.273.079-3.253-.002-4.4-.08-1.147-.145-.105-.144 2.315m-9.752 9.682c-.109 2.465-.056 4.339.117 4.165.173-.174.262-2.191.197-4.482l-.116-4.165-.198 4.482m107.759 8.518c0 2.97.063 4.185.14 2.7.077-1.485.077-3.915 0-5.4-.077-1.485-.14-.27-.14 2.7m-117.359 1.082c-.109 2.465-.056 4.339.117 4.165.173-.174.262-2.191.197-4.482l-.116-4.165-.198 4.482m117.955 14.233c.174.173 2.191.262 4.482.197l4.165-.116-4.482-.198c-2.465-.109-4.339-.056-4.165.117m-8.953 19.747c3.835.293 8.111.314 7.94.038-.103-.165-2.292-.269-4.864-.23-2.572.038-3.956.125-3.076.192m30.715.034c1.273.08 3.253.079 4.4-.002 1.147-.08.105-.145-2.315-.144-2.42.001-3.358.066-2.085.146M97.346 219c.001 2.2.068 3.049.149 1.887.081-1.163.081-2.963-.002-4-.082-1.038-.148-.087-.147 2.113m166.405.6c0 2.53.065 3.565.145 2.3.079-1.265.079-3.335 0-4.6-.08-1.265-.145-.23-.145 2.3m-175.151 4c-.159.257 1.321.4 4.153.4 2.502 0 4.506-.173 4.647-.4.159-.257-1.321-.4-4.153-.4-2.502 0-4.506.173-4.647.4m-41.5.699c4.015.066 10.585.066 14.6 0 4.015-.065.73-.118-7.3-.118s-11.315.053-7.3.118m221.393-.008 4.292.136.119 9.187.119 9.186-.012-9.3-.011-9.3-4.4-.022-4.4-.023 4.293.136M234.554 238.4c0 2.75.064 3.875.142 2.5.078-1.375.078-3.625 0-5s-.142-.25-.142 2.5m51.561-4.504c1.273.08 3.253.079 4.4-.002 1.147-.08.105-.145-2.315-.144-2.42.001-3.358.066-2.085.146M32 234.259c3.312.294 7.512.317 7.34.041-.103-.165-2.112-.27-4.464-.233-2.352.037-3.646.123-2.876.192m251.344 4.141c0 2.09.068 2.945.15 1.9.082-1.045.082-2.755 0-3.8s-.15-.19-.15 1.9m-243.998.6c.001 2.2.068 3.049.149 1.887.081-1.163.081-2.963-.002-4-.082-1.038-.148-.087-.147 2.113m10.041 4.896 8.987.119.134 4.393.133 4.393-.02-4.5-.021-4.501-9.1-.012-9.1-.011 8.987.119m177.913 0c1.265.079 3.335.079 4.6 0 1.265-.08.23-.145-2.3-.145s-3.565.065-2.3.145m48.815 0c1.273.08 3.253.079 4.4-.002 1.147-.08.105-.145-2.315-.144-2.42.001-3.358.066-2.085.146m-155.802 9.999c1.163.081 2.963.081 4-.002 1.038-.082.087-.148-2.113-.147-2.2.001-3.049.068-1.887.149m77.802 9.601c1.273.08 3.253.079 4.4-.002 1.147-.08.105-.145-2.315-.144-2.42.001-3.358.066-2.085.146M146.4 287.52l.199 14.28.106-13.975c.058-7.686-.032-14.112-.2-14.28-.168-.168-.215 6.12-.105 13.975m60.716 4.777c1.383.078 3.543.077 4.8-.002 1.256-.079.124-.143-2.516-.142-2.64 0-3.668.065-2.284.144m8.037 9.817c.173.173 2.28.262 4.681.198l4.366-.116-4.682-.198c-2.574-.109-4.539-.057-4.365.116m-68.029 4.899.124 4.539 4.585.124c3.747.101 4.461.032 3.9-.376-.432-.315-2.063-.5-4.409-.5H147.6v-3.976c0-2.187-.135-4.061-.3-4.163-.165-.103-.244 1.856-.176 4.352m77.427-.213c0 2.53.065 3.565.145 2.3.079-1.265.079-3.335 0-4.6-.08-1.265-.145-.23-.145 2.3m-7.851 14.696c1.375.078 3.625.078 5 0s.25-.142-2.5-.142-3.875.064-2.5.142"/>
    <path fill="#d5ecdc" d="M315.315 77.496c1.273.08 3.253.079 4.4-.002 1.147-.08.105-.145-2.315-.144-2.42.001-3.358.066-2.085.146M258.6 87.979l-4.4.221-.02 4.2-.021 4.2.134-4.1.134-4.1h4.163c2.344 0 4.271-.175 4.41-.4.136-.22.192-.364.124-.321-.068.044-2.104.179-4.524.3m36.9 28.716c1.155.081 3.045.081 4.2 0 1.155-.081.21-.147-2.1-.147s-3.255.066-2.1.147m-67.785.401c1.273.08 3.253.079 4.4-.002 1.147-.08.105-.145-2.315-.144-2.42.001-3.358.066-2.085.146m-20 18.8c1.273.08 3.253.079 4.4-.002 1.147-.08.105-.145-2.315-.144-2.42.001-3.358.066-2.085.146m68.385 10.8c1.265.079 3.335.079 4.6 0 1.265-.08.23-.145-2.3-.145s-3.565.065-2.3.145M351.35 151c.001 2.42.066 3.358.146 2.085.08-1.273.079-3.253-.002-4.4-.08-1.147-.145-.105-.144 2.315m-67.35.186v4.014h8.029l-.115-3.9-.114-3.9-3.9-.114-3.9-.115v4.015m9.2 9.614v4.4h4.12c2.266 0 4.336.18 4.6.4.349.291.371.269.08-.08-.22-.264-.4-2.424-.4-4.8v-4.32h-8.4v4.4m48.151 0c0 2.53.065 3.565.145 2.3.079-1.265.079-3.335 0-4.6-.08-1.265-.145-.23-.145 2.3m-192.036 14.296c1.273.08 3.253.079 4.4-.002 1.147-.08.105-.145-2.315-.144-2.42.001-3.358.066-2.085.146M264.151 189.6c0 2.53.065 3.565.145 2.3.079-1.265.079-3.335 0-4.6-.08-1.265-.145-.23-.145 2.3m-127.601.2c.001 2.42.066 3.358.146 2.085.08-1.273.079-3.253-.002-4.4-.08-1.147-.145-.105-.144 2.315m-7.05 4.895c1.155.081 3.045.081 4.2 0 1.155-.081.21-.147-2.1-.147s-3.255.066-2.1.147m-36.414 20.404-4.315.128.115 3.887L89 223l4.2.113 4.2.112v-8.34c0 .047-1.941.143-4.314.214M292.972 224c0 5.17.057 7.285.127 4.7.069-2.585.069-6.815 0-9.4-.07-2.585-.127-.47-.127 4.7m-75.257 29.896c1.273.08 3.253.079 4.4-.002 1.147-.08.105-.145-2.315-.144-2.42.001-3.358.066-2.085.146m-9.6 9.2c1.273.08 3.253.079 4.4-.002 1.147-.08.105-.145-2.315-.144-2.42.001-3.358.066-2.085.146m-75.828.395 4.087.137.134 4.387.133 4.386-.02-4.5-.021-4.501-4.2-.023-4.2-.023 4.087.137m8.026 10.004c1.163.081 2.963.081 4-.002 1.038-.082.087-.148-2.113-.147-2.2.001-3.049.068-1.887.149m6.638 33.705c0 2.53.065 3.565.145 2.3.079-1.265.079-3.335 0-4.6-.08-1.265-.145-.23-.145 2.3m78 9.2c0 2.53.065 3.565.145 2.3.079-1.265.079-3.335 0-4.6-.08-1.265-.145-.23-.145 2.3m-59.203.4c0 2.31.066 3.255.147 2.1.081-1.155.081-3.045 0-4.2-.081-1.155-.147-.21-.147 2.1m17.378 5.1c4.25.064 11.09.064 15.2-.001 4.111-.065.634-.118-7.726-.118-8.36.001-11.723.054-7.474.119"/>
    <path fill="#94ccac" d="m292.687 68.698 19.286.11.135 4.197.135 4.197-.022-4.301-.021-4.301-19.4-.006-19.4-.006 19.287.11m-19.403 4.789-.084 4.487-4.5.113-4.5.113-.4 9.2c-.22 5.06-.546 9.425-.724 9.7-.182.281-.15.5.073.5.671 0 .785-1.096 1.069-10.3l.275-8.9h4.366c5.143 0 4.815.369 4.64-5.227l-.13-4.173-.085 4.487m39.377 4.613c.102.165 2.156.3 4.563.3h4.376v4.586c0 5.55-.04 5.509 5.333 5.408 2.017-.038 3.892-.052 4.167-.032.367.028.5 1.189.5 4.358 0 5.422-.142 5.28 5.28 5.28h4.32v9.32c0 11.099-.421 10.28 5.28 10.28h4.32V146l-4.1.006c-5.289.008-5.049-.224-5.186 5.009l-.114 4.385-4.376.114c-2.407.063-4.602.301-4.877.53-.55.456-.976 9.558-.447 9.557.165-.001.3-2.052.3-4.558 0-5.386-.368-5.043 5.409-5.043 2.331 0 4.252-.175 4.391-.4.139-.225 2.063-.4 4.399-.4h4.151l.246-4.5c.135-2.475.282-10.98.325-18.9l.079-14.4-4.6-.2-4.6-.2-.2-9.6-.2-9.6-4.6-.2-4.6-.2-.109-4.4c-.136-5.5-.029-5.4-5.755-5.4h-4.311l-.112-4.7-.113-4.7-4.663-.2c-2.565-.11-4.579-.065-4.476.1m-58.461 20c-.299.856-.416 9.079-.125 8.782.258-.263.658-9.285.412-9.283-.061.001-.191.226-.287.501m43.422 8.993 4.823.132-.122 4.969c-.068 2.733.018 4.827.19 4.654.173-.173.263-2.46.2-5.081L302.6 107l-4.901-.019-4.9-.02 4.823.132m-53.422.607c-.295.841-.418 9.482-.131 9.182.253-.265.66-9.684.418-9.683-.061.001-.191.226-.287.501m3.1-.206c1.045.082 2.755.082 3.8 0s.19-.15-1.9-.15-2.945.068-1.9.15m45.25 4.706c.001 2.42.066 3.358.146 2.085.08-1.273.079-3.253-.002-4.4-.08-1.147-.145-.105-.144 2.315m-58.283 5.267c-.147.146-.267 2.196-.267 4.555v4.288l-9.4.294c-5.17.162-9.4.41-9.4.553 0 .142 1.305.198 2.9.125 1.595-.073 5.87-.257 9.5-.408l6.6-.274.114-4.385c.076-2.891.28-4.491.6-4.694.3-.191.32-.311.053-.315-.239-.003-.554.114-.7.261m-18.985 14.384c-.108 4.812.568 4.513-10.514 4.649l-9.368.115 9.686.093c11.391.108 10.621.479 10.412-5.011l-.133-3.497-.083 3.651m57.711 14.649c-.099.275-.229 2.39-.287 4.7l-.106 4.2-4.6.2-4.6.2v19.567c0 17.053.077 19.587.6 19.73.448.122.473.074.096-.193-.396-.28-.482-4.471-.4-19.53l.104-19.174 3.8-.1c6.015-.157 5.533.293 5.677-5.302.121-4.707.081-5.304-.284-4.298m15.194-.207 4.588.132.112 4.688.113 4.687 4.6.2 4.6.2.113 4.7c.062 2.585.242 4.7.4 4.701.31.001.205-7.623-.127-9.101-.194-.869-.358-.9-4.781-.9h-4.58l-.112-4.7-.113-4.7-4.701-.02-4.7-.02 4.588.133m-102.72.374c-.147.146-.267 2.115-.267 4.375v4.108l-4.3.22c-2.365.121-6.55.357-9.3.525l-5 .305-.114 4.376c-.063 2.407-.31 4.612-.549 4.9-.279.336-.289.524-.029.524.703 0 .892-1.142.892-5.384v-4.118l9.1-.292c10.851-.347 10.19-.019 10.056-4.999-.056-2.115.031-4.062.194-4.326.312-.505-.225-.673-.683-.214M156.593 166.5c-.099.275-.229 2.39-.287 4.7l-.106 4.2-4.6.2-4.6.2-.019 4.6-.019 4.6.132-4.5.131-4.5h4.339c5.309 0 5.127.189 5.299-5.5.134-4.416.095-5.004-.27-4m-19.394 19c0 .165 1.485.252 3.3.192 5.715-.186 6.271-.355 1.401-.425-2.585-.037-4.7.068-4.701.233m-.508 9.007c-.213.556-1.002.688-4.773.794l-4.518.128 4.4.079c4.438.08 5.643-.178 5.322-1.142-.127-.382-.245-.344-.431.141m136.034 5.211c.068 2.465.248 4.609.4 4.764.151.155.219-1.735.15-4.2-.068-2.465-.248-4.609-.4-4.764-.151-.155-.219 1.735-.15 4.2m-19.485 5.139c-.747.218-2.953.34-4.9.27l-3.542-.127-.001 3.8c-.001 2.59-.192 4.165-.599 4.946-.443.849-.577 2.299-.518 5.6l.081 4.454.219-4.8.22-4.8 4.9-.112 4.9-.113v-4.38c0-5.156-.294-4.899 5.4-4.713l3.6.118.114 4.394c.14 5.354-.046 5.161 5.204 5.406l4.282.2.465 9.4.465 9.4-.201-9.6c-.111-5.28-.29-9.69-.397-9.8-.107-.11-2.206-.29-4.663-.4l-4.469-.2-.2-4.6-.2-4.6-4.4-.07c-2.42-.039-5.012.108-5.76.327m-135.44.443c-.299.856-.416 9.079-.125 8.782.258-.263.658-9.285.412-9.283-.061.001-.191.226-.287.501m165.154 9.018c.195 5.215.22 13.757.055 18.982l-.299 9.5h-4.621c-2.542 0-4.514.109-4.381.242.386.385 8.713.297 9.107-.097.197-.197.408-2.424.471-4.951l.114-4.594 4.3-.114 4.3-.113v-18.346l-4.3-.113-4.3-.114-.114-4.594c-.063-2.527-.243-4.724-.4-4.882-.157-.158-.127 3.979.068 9.194m-184.687.349c-.147.146-.267 2.301-.267 4.787v4.521l-4.7.131-4.7.131 4.8-.019 4.8-.018.2-4.6.2-4.6 9.2-.211 9.2-.212-9.233-.088c-5.079-.049-9.354.031-9.5.178M234.19 224.5c-.102.275-.232 4.55-.288 9.5l-.102 9-4.6.2-4.6.2-.113 4.687-.112 4.688-4.688.133-4.687.134 4.8-.021 4.8-.021.113-4.7.112-4.7h4.308c5.679 0 5.267.785 5.267-10.047 0-6.895.121-9.135.5-9.288.392-.158.389-.209-.013-.233-.281-.018-.595.193-.697.468m-194.504.602c.256.31.35 2.295.247 5.2-.093 2.584-.103 4.385-.022 4.003.135-.642 1.246-.703 14.617-.8L69 233.4l.113-4.287.114-4.288 4.686-.112c2.578-.062-4.162-.113-14.977-.113-15.717 0-19.581.101-19.25.502m-.002 13.749c-.11 5.043-.802 4.713 10.148 4.841L59 243.8l.2 4.6.2 4.6 29.5.004 29.5.004-29.387-.107-29.388-.106-.112-4.698-.113-4.697-9.6-.218c-5.28-.12-9.638-.255-9.686-.3-.047-.045-.144-1.837-.216-3.982l-.131-3.9-.083 3.851m165.783 14.616c-.147.146-.267 2.216-.267 4.6v4.333h-4.367c-4.481 0-5.633.182-5.633.892 0 .26.188.25.524-.029.291-.241 2.568-.486 5.1-.549l4.576-.114.114-4.3.113-4.3 4.087-.006c2.247-.003 4.356-.181 4.686-.394.407-.263-.894-.39-4.033-.394-2.549-.003-4.754.114-4.9.261m-73.691 9.225c2.648.083 4.609.328 4.965.622.477.393.551.372.391-.114-.16-.487-1.095-.604-4.965-.622l-4.767-.022 4.376.136m7.524 10.004c1.265.079 3.335.079 4.6 0 1.265-.08.23-.145-2.3-.145s-3.565.065-2.3.145m46.341.254c-.758.914-.42 19.135.359 19.347.452.124.475.075.092-.195-.39-.276-.482-2.514-.4-9.73L185.8 273l4.8-.22 4.8-.219-4.651-.081c-3.536-.061-4.761.052-5.108.47m-38.826 14.569c.118 8.075.253 14.72.3 14.768.047.048 2.11.138 4.585.2l4.5.113.113 4.5c.062 2.475.242 4.5.4 4.501.308.001.205-7.214-.124-8.688-.188-.843-.421-.892-4.693-1l-4.496-.113-.105-14.185c-.058-7.802-.238-14.318-.4-14.481-.162-.162-.198 6.311-.08 14.385m48.709 9.447.123 4.568 4.677.237c2.572.13 6.836.37 9.476.533l4.8.296-.132 8.79c-.072 4.834-.218 8.929-.323 9.1-.106.17-10.796.31-23.756.31h-23.563l-.113-4.467c-.09-3.566-.234-4.501-.713-4.631-.429-.116-.462-.065-.114.182.317.226.525 1.866.6 4.731L166.6 321l23.72.103c16.548.072 23.967-.029 24.536-.333.899-.481.758-17.53-.154-18.67-.276-.345-1.75-.5-4.751-.5H205.6v-4.12c0-5.225.159-5.08-5.58-5.081l-4.62-.001.124 4.568"/>
    <path fill="#e4f1e7" d="M273.062 67.9c-.102.165 8.78.3 19.738.3s19.84-.135 19.738-.3c-.102-.165-8.984-.3-19.738-.3s-19.636.135-19.738.3m-.578 5-.084 4.3h-4.376c-2.407 0-4.461.135-4.563.3-.103.165 1.876.244 4.398.175 5.357-.145 5.016.214 4.84-5.103l-.132-3.972-.083 4.3m40.466.1c.001 2.42.066 3.358.146 2.085.08-1.273.079-3.253-.002-4.4-.08-1.147-.145-.105-.144 2.315m9.375 5.016c.79.736.878 1.229.907 5.1.017 2.356.122 4.059.233 3.784.137-.341 1.209-.5 3.368-.5H330v-4c0-2.4.16-4 .4-4 .24 0 .4 1.581.4 3.942 0 3.65.074 4.021 1 5.02.934 1.008 1 1.355 1 5.259V96.8h8.698l.07-3.719c.099-5.313.307-5.081-4.562-5.081-5.061 0-4.947.122-5.092-5.424L331.8 78.2l-4.394-.114c-2.417-.063-4.568-.288-4.78-.5-.213-.213-.564-.386-.781-.386-.218 0-.002.367.48.816M253.751 92.8c0 2.53.065 3.565.145 2.3.079-1.265.079-3.335 0-4.6-.08-1.265-.145-.23-.145 2.3m88.248 13.919.2 9.481.108-9.172c.06-5.045-.03-9.311-.199-9.481-.17-.17-.218 3.958-.109 9.172M249 106.4l-4.4.242 4.5.079c2.786.049 4.5-.073 4.5-.321 0-.22-.045-.364-.1-.321-.055.044-2.08.188-4.5.321m-9.9 1.498-3.9.131v7.542l3.9.115c2.821.082 1.439.211-4.993.465-5.684.224-9.027.513-9.264.8-.43.522-.784 9.553-.357 9.125.157-.158.337-2.265.4-4.682L225 117l9.3-.353 9.3-.352v-4.348c0-2.391-.135-4.309-.3-4.263-.165.046-2.055.142-4.2.214m58.2-.007 4.3.136v7.946l-4.3.129-4.3.128 4.514.085 4.513.085-.113-4.3-.114-4.3-4.4-.022-4.4-.023 4.3.136m53.6 8.941c.644.375.708 1.597.795 15.288l.095 14.88.11-14.753c.11-14.748.021-15.869-1.249-15.835-.248.007-.136.196.249.42m-136.727 10.095c-.112.29-.15 2.405-.085 4.7l.117 4.173.198-4.701c.195-4.647.164-5.2-.23-4.172m-19.359 9.447c-.228.425-.414 2.67-.414 4.987v4.214l-4.601.132-4.6.133 4.7-.02 4.701-.02.099-4c.12-4.833.293-5.687 1.201-5.924.646-.169.647-.187.014-.23-.377-.025-.872.302-1.1.728m78.963 10.942c-.114.297-.148 2.328-.076 4.512l.132 3.972.083-4.3.084-4.3h9.173l.113 4.3.114 4.3 4.482.2c2.465.11 4.353.072 4.195-.084-.157-.157-2.084-.337-4.281-.4l-3.996-.116-.2-4.2-.2-4.2-4.708-.113c-3.668-.088-4.753.007-4.915.429m-7.064 9.379c1.163.081 2.963.081 4-.002 1.038-.082.087-.148-2.113-.147-2.2.001-3.049.068-1.887.149m26.173 4.218c-.063 3.476.045 4.756.414 4.881.905.306 9.438.413 8.964.112-.255-.162-2.393-.297-4.751-.3l-4.288-.006-.126-4.7-.127-4.7-.086 4.713m48.865-.113c0 2.53.065 3.565.145 2.3.079-1.265.079-3.335 0-4.6-.08-1.265-.145-.23-.145 2.3m-77.578 14.4c0 5.39.057 7.595.126 4.9.069-2.695.069-7.105 0-9.8-.069-2.695-.126-.49-.126 4.9m71.142-9.304c1.273.08 3.253.079 4.4-.002 1.147-.08.105-.145-2.315-.144-2.42.001-3.358.066-2.085.146m-188.88 9.462c-.307.37-.419 2.021-.334 4.9l.129 4.342.085-4.42c.054-2.798.261-4.596.565-4.9.264-.264.376-.48.249-.48s-.439.251-.694.558m118.232 10.109c-.147.146-.267 2.205-.267 4.575v4.31l4.5.124 4.5.124-.127-4.393c-.081-2.819-.296-4.501-.6-4.694-.585-.372-7.639-.413-8.006-.046m-137.853 9.707c-.228.425-.381 2.63-.34 4.9l.074 4.126.226-4.4c.124-2.42.372-4.625.55-4.9.178-.275.229-.5.114-.5-.116 0-.396.348-.624.774m146.853 4.526c-.037 2.365.068 4.3.233 4.301.165 0 .251-1.305.191-2.9-.198-5.248-.355-5.769-.424-1.401m10.113 9.7.02 4.4 4 .021 4 .021-3.887-.135-3.887-.135-.133-4.286-.132-4.286.019 4.4m-175.5-3.946c-.154.153-.28 2.049-.28 4.213v3.933l-5.1.032c-2.805.017-4.856.128-4.557.247.298.119 4.579.084 9.513-.076l8.971-.293-.114-4.055-.113-4.055-4.02-.113c-2.211-.062-4.146.013-4.3.167m-20.013 8.813c-.147.146-.267 2.216-.267 4.6 0 2.383-.045 4.375-.1 4.426-.055.052-13.225.187-29.267.3-23.187.165-29.188.312-29.27.717-.057.28-.012.326.1.1.136-.274 9.762-.41 29.09-.41 21.934 0 29.003-.116 29.367-.48.311-.311.48-1.922.48-4.568v-4.088l1.211-.266c.666-.147 2.638-.212 4.381-.146 1.743.066 3.298-.009 3.455-.166.158-.157-1.784-.286-4.314-.286-2.53 0-4.72.12-4.866.267m167.633.429c1.375.078 3.625.078 5 0s.25-.142-2.5-.142-3.875.064-2.5.142m-16.5 10.083L235 225l-.035 9c-.032 8.316-.012 8.574.252 3.4.157-3.08.307-7.085.334-8.9l.049-3.3h3.976c2.22 0 4.086-.177 4.224-.4.136-.22.192-.364.124-.321-.068.044-2.104.179-4.524.3m26.7-.085c1.045.082 2.755.082 3.8 0s.19-.15-1.9-.15-2.945.068-1.9.15m6.392 9.157c-.084 8.401-.028 9.302.608 9.8.618.485.642.475.208-.083-.349-.447-.526-3.306-.608-9.8l-.116-9.168-.092 9.251M29.2 233.444c0 1.071 1.111 1.356 5.28 1.356h4.32v4.151c0 3.478.114 4.24.7 4.7.616.483.642.474.215-.074-.29-.372-.532-2.308-.6-4.8L39 234.6l-4.4-.109c-3.556-.088-4.496-.237-4.9-.776-.275-.368-.5-.49-.5-.271m259.2.536-4.6.22-.021 4.501-.02 4.5.134-4.4.133-4.401h4.363c2.478 0 4.471-.173 4.611-.4.136-.22.192-.364.124-.32-.068.044-2.194.179-4.724.3m-161.926 24.044c-.058 3.328.059 4.388.556 5 .346.427.481.506.3.176-.182-.33-.432-2.58-.556-5l-.226-4.4-.074 4.224m81.226 5.472c1.265.079 3.335.079 4.6 0 1.265-.08.23-.145-2.3-.145s-3.565.065-2.3.145m-11.8.336c-.165.166-.3 2.287-.3 4.715 0 3.043.129 4.284.414 3.999.25-.25.369-2.126.3-4.715-.063-2.365-.249-4.165-.414-3.999M146.181 287.8c-.001 7.92.053 11.217.118 7.326.066-3.891.066-10.371.001-14.4-.066-4.029-.119-.846-.119 7.074m39.99-5.4c0 4.95.057 6.975.128 4.5.07-2.475.07-6.525 0-9-.071-2.475-.128-.45-.128 4.5m5.152 9.499c2.818.069 7.318.069 10 0 2.682-.069.377-.126-5.123-.126-5.5.001-7.695.057-4.877.126m24.138 9.801c.102.165 2.231.3 4.729.3 2.704 0 4.626.166 4.747.41.112.226.157.18.101-.1-.073-.366-1.467-.567-4.933-.71-2.657-.11-4.747-.065-4.644.1m-68.882 5.267c.017 3.886.132 4.798.621 4.931.43.117.462.065.114-.183-.318-.226-.533-1.927-.621-4.93l-.136-4.585.022 4.767m11.021 5.293c3.282.293 7.912.317 7.74.04-.103-.165-2.202-.27-4.664-.233-2.462.037-3.846.124-3.076.193m67.2 8.873c0 .327-1.53.493-5.1.553l-5.1.087 4.967.126c4.598.117 6.288-.177 5.506-.959-.15-.15-.273-.063-.273.193"/>
    <path fill="#dcece4" d="M330 82.4v4h-3.2c-1.867 0-3.2.167-3.2.4 0 .239 1.548.4 3.843.4 3.34 0 3.811-.083 3.6-.633-.134-.348-.243-2.328-.243-4.4 0-2.245-.162-3.767-.4-3.767-.24 0-.4 1.6-.4 4m-7.05.6c.001 2.42.066 3.358.146 2.085.08-1.273.079-3.253-.002-4.4-.08-1.147-.145-.105-.144 2.315m-66.25 4.895c1.155.081 3.045.081 4.2 0 1.155-.081.21-.147-2.1-.147s-3.255.066-2.1.147m75.85 4.705c.001 2.42.066 3.358.146 2.085.08-1.273.079-3.253-.002-4.4-.08-1.147-.145-.105-.144 2.315m9.804 23.915c.174.174 2.101.263 4.281.198l3.965-.118-4.282-.197c-2.355-.109-4.139-.056-3.964.117m-143.638 19.382c1.383.078 3.543.077 4.8-.002 1.256-.079.124-.143-2.516-.142-2.64 0-3.668.065-2.284.144M194.95 141c.001 2.42.066 3.358.146 2.085.08-1.273.079-3.253-.002-4.4-.08-1.147-.145-.105-.144 2.315m-19.267 10.087-.083 4.087-4.5.127-4.5.128 4.513.085c5.29.101 4.968.42 4.786-4.744l-.133-3.77-.083 4.087m108.094.113.023 4.2 3.978.115c2.331.068 4.235.316 4.6.6.547.427.556.401.073-.215-.456-.582-1.212-.7-4.486-.7h-3.937l-.137-4.1-.137-4.1.023 4.2m60.738 5.096c1.273.08 3.253.079 4.4-.002 1.147-.08.105-.145-2.315-.144-2.42.001-3.358.066-2.085.146m-80.364 4.904c0 2.53.065 3.565.145 2.3.079-1.265.079-3.335 0-4.6-.08-1.265-.145-.23-.145 2.3M159.1 165.495c1.155.081 3.045.081 4.2 0 1.155-.081.21-.147-2.1-.147s-3.255.066-2.1.147m136.215.001c1.273.08 3.253.079 4.4-.002 1.147-.08.105-.145-2.315-.144-2.42.001-3.358.066-2.085.146m14.585.803c4.015.066 10.585.066 14.6 0 4.015-.065.73-.118-7.3-.118s-11.315.053-7.3.118m-170.2 18.395c1.045.082 2.755.082 3.8 0s.19-.15-1.9-.15-2.945.068-1.9.15M126.948 199.6c0 2.31.066 3.255.147 2.1.081-1.155.081-3.045 0-4.2-.081-1.155-.147-.21-.147 2.1m-6.648 4.695c1.155.081 3.045.081 4.2 0 1.155-.081.21-.147-2.1-.147s-3.255.066-2.1.147m155.815.001c1.273.08 3.253.079 4.4-.002 1.147-.08.105-.145-2.315-.144-2.42.001-3.358.066-2.085.146m-159.231 4.991-.084 4.287-4.5.127-4.5.128 4.513.085c5.303.101 4.965.451 4.786-4.942l-.132-3.972-.083 4.287m-19.437 4.999c-.157.157-1.712.232-3.455.166s-3.715-.001-4.381.146l-1.211.266v4.088c0 2.723-.167 4.264-.5 4.615-.412.434-.359.443.3.048.729-.437.789-.832.673-4.448l-.126-3.967h4.177c3.226 0 4.292-.137 4.676-.6.5-.603.381-.848-.153-.314m149.453.41c1.265.079 3.335.079 4.6 0 1.265-.08.23-.145-2.3-.145s-3.565.065-2.3.145m-2.352 4.504c0 2.31.066 3.255.147 2.1.081-1.155.081-3.045 0-4.2-.081-1.155-.147-.21-.147 2.1m18.802.2c.001 2.42.066 3.358.146 2.085.08-1.273.079-3.253-.002-4.4-.08-1.147-.145-.105-.144 2.315m-25.85 5.295c1.155.081 3.045.081 4.2 0 1.155-.081.21-.147-2.1-.147s-3.255.066-2.1.147M29.35 229c.001 2.42.066 3.358.146 2.085.08-1.273.079-3.253-.002-4.4-.08-1.147-.145-.105-.144 2.315m44.579 24.9c7.992.06 20.952.06 28.8 0 7.849-.061 1.311-.11-14.529-.11s-22.262.049-14.271.11m53.019 4.5c0 2.31.066 3.255.147 2.1.081-1.155.081-3.045 0-4.2-.081-1.155-.147-.21-.147 2.1m88 0c0 2.31.066 3.255.147 2.1.081-1.155.081-3.045 0-4.2-.081-1.155-.147-.21-.147 2.1M188.7 273.493c.935.084 2.465.084 3.4 0s.17-.153-1.7-.153c-1.87 0-2.635.069-1.7.153M214.95 297c.001 2.42.066 3.358.146 2.085.08-1.273.079-3.253-.002-4.4-.08-1.147-.145-.105-.144 2.315m10.003 10.4c0 2.64.065 3.668.144 2.284.078-1.383.077-3.543-.002-4.8-.079-1.256-.143-.124-.142 2.516m-75.238 4.496c1.273.08 3.253.079 4.4-.002 1.147-.08.105-.145-2.315-.144-2.42.001-3.358.066-2.085.146m19.185 10c1.265.079 3.335.079 4.6 0 1.265-.08.23-.145-2.3-.145s-3.565.065-2.3.145m39.016.001c1.383.078 3.543.077 4.8-.002 1.256-.079.124-.143-2.516-.142-2.64 0-3.668.065-2.284.144"/>
  </g>
</svg>
