<svg xmlns="http://www.w3.org/2000/svg" viewBox="0 0 289 290"><g fill="none" fill-rule="evenodd" transform="translate(0 .5)"><g stroke="#1F2937" stroke-width="6" transform="translate(0 62)"><path stroke-linecap="square" d="M22.4 29 31 47.5h43"/><circle cx="16" cy="16" r="13"/></g><g stroke="#1F2937" stroke-width="6" transform="translate(7 123)"><path stroke-linecap="square" d="M25 12.5h42"/><circle cx="12" cy="12" r="9"/></g><g stroke="#1F2937" stroke-width="6" transform="translate(39 149)"><path stroke-linecap="square" d="M22 10.5h13"/><circle cx="10" cy="10" r="7"/></g><g stroke="#1F2937" stroke-width="6" transform="translate(19 172)"><path stroke-linecap="square" d="M24 11.5h31"/><circle cx="12" cy="12" r="9"/></g><g stroke="#1F2937" stroke-width="6" transform="translate(50 217.5)"><path stroke-linecap="square" d="M56 0v16.5L29.4 33"/><circle cx="16" cy="39.5" r="13"/></g><g stroke="#1F2937" stroke-width="6" transform="translate(115 217.5)"><path stroke-linecap="square" d="M16 0v39"/><circle cx="16" cy="55.5" r="13"/></g><g stroke="#1F2937" stroke-width="6" transform="translate(146 217.5)"><path stroke-linecap="square" d="M10 0v21"/><circle cx="10" cy="33.5" r="7"/></g><g stroke="#1F2937" stroke-width="6" transform="translate(181 217.5)"><path stroke-linecap="square" d="M0 0v33l19 17"/><circle cx="27" cy="56.5" r="9"/></g><g stroke="#1F2937" stroke-width="6" transform="translate(213 184.5)"><path stroke-linecap="square" d="M0 0h25l14 17.9"/><circle cx="49" cy="28.5" r="13"/></g><g stroke="#1F2937" stroke-width="6" transform="translate(213 150)"><path stroke-linecap="square" d="M0 9.5h25"/><circle cx="35" cy="10" r="7"/></g><g stroke="#1F2937" stroke-width="6" transform="translate(213 123)"><path stroke-linecap="square" d="M0 11.5h39"/><circle cx="51" cy="12" r="9"/></g><g stroke="#1F2937" stroke-width="6" transform="translate(213 75)"><path stroke-linecap="square" d="M0 34.5h27.8L49 22.7"/><circle cx="60" cy="16" r="13"/></g><g stroke="#1F2937" stroke-width="6" transform="translate(181 31)"><path stroke-linecap="square" d="M24 17 0 31v15.5"/><circle cx="31" cy="12" r="9"/></g><g stroke="#1F2937" stroke-width="6" transform="translate(146 16)"><path stroke-linecap="square" d="M10 19.5v42"/><circle cx="10" cy="10" r="7"/></g><g stroke="#1F2937" stroke-width="6" transform="translate(99)"><path stroke-linecap="square" d="m24.2 26 7.8 9.5v42"/><circle cx="16" cy="16" r="13"/></g><g stroke="#1F2937" stroke-width="6" transform="translate(96 38)"><path stroke-linecap="square" d="M10 20.5v19"/><circle cx="10" cy="10" r="7"/></g><rect width="115" height="116" x="86" y="89.5" stroke="#1F2937" stroke-width="8" rx="8"/><path fill="#1F2937" fill-rule="nonzero" d="M156.4 153.7h-25.8v36.8h-20.3v-86h20.3v33.3h25.8v-33.2h20.4v85.9h-20.4z"/></g></svg>