<svg xmlns="http://www.w3.org/2000/svg" viewBox="0 0 289 290"><g fill="none" fill-rule="evenodd" transform="translate(0 1)"><g stroke="#1F2937" stroke-width="6" transform="translate(0 62)"><path stroke-linecap="square" d="m22 29 9 19h43"/><circle cx="16" cy="16" r="13"/></g><g stroke="#1F2937" stroke-width="6" transform="translate(7 123)"><path stroke-linecap="square" d="M25 13h42"/><circle cx="12" cy="12" r="9"/></g><g stroke="#1F2937" stroke-width="6" transform="translate(39 149)"><path stroke-linecap="square" d="M22 11h13"/><circle cx="10" cy="10" r="7"/></g><g stroke="#1F2937" stroke-width="6" transform="translate(19 172)"><path stroke-linecap="square" d="M24 12h31"/><circle cx="12" cy="12" r="9"/></g><g stroke="#1F2937" stroke-width="6" transform="translate(50 218)"><path stroke-linecap="square" d="M56 0v17L29 33"/><circle cx="16" cy="39.5" r="13"/></g><g stroke="#1F2937" stroke-width="6" transform="translate(115 218)"><path stroke-linecap="square" d="M16 0v39"/><circle cx="16" cy="55.5" r="13"/></g><g stroke="#1F2937" stroke-width="6" transform="translate(146 218)"><path stroke-linecap="square" d="M10 0v21"/><circle cx="10" cy="33.5" r="7"/></g><g stroke="#1F2937" stroke-width="6" transform="translate(181 218)"><path stroke-linecap="square" d="M0 0v33l19 17"/><circle cx="27" cy="56.5" r="9"/></g><g stroke="#1F2937" stroke-width="6" transform="translate(213 185)"><path stroke-linecap="square" d="M0 0h25l14 18"/><circle cx="49" cy="28.5" r="13"/></g><g stroke="#1F2937" stroke-width="6" transform="translate(213 150)"><path stroke-linecap="square" d="M0 10h25"/><circle cx="35" cy="10" r="7"/></g><g stroke="#1F2937" stroke-width="6" transform="translate(213 123)"><path stroke-linecap="square" d="M0 12h39"/><circle cx="51" cy="12" r="9"/></g><g stroke="#1F2937" stroke-width="6" transform="translate(213 75)"><path stroke-linecap="square" d="M0 35h28l21-12"/><circle cx="60" cy="16" r="13"/></g><g stroke="#1F2937" stroke-width="6" transform="translate(181 31)"><path stroke-linecap="square" d="M24 17 0 31v16"/><circle cx="31" cy="12" r="9"/></g><g stroke="#1F2937" stroke-width="6" transform="translate(146 16)"><path stroke-linecap="square" d="M10 20v42"/><circle cx="10" cy="10" r="7"/></g><g stroke="#1F2937" stroke-width="6" transform="translate(99)"><path stroke-linecap="square" d="m24 26 8 10v42"/><circle cx="16" cy="16" r="13"/></g><g stroke="#1F2937" stroke-width="6" transform="translate(96 38)"><path stroke-linecap="square" d="M10 21v19"/><circle cx="10" cy="10" r="7"/></g><rect width="115" height="116" x="86" y="90" stroke="#1F2937" stroke-width="8" rx="8"/><path fill="#1F2937" fill-rule="nonzero" d="M156 154h-25v36h-21v-85h21v33h25v-33h21v86h-21z"/></g></svg>
